<svg width="244" height="291" viewBox="0 0 244 291" fill="none" xmlns="http://www.w3.org/2000/svg">
<g clip-path="url(#clip0_3105_68)">
<rect width="243.722" height="290.304" rx="14.9727" fill="white"/>
<rect x="-9.98242" y="-0.000244141" width="264.517" height="7.48634" fill="url(#paint0_linear_3105_68)"/>
<path d="M18.1431 41.4498H14.2605V30.4973H18.1752C19.2768 30.4973 20.2252 30.7165 21.0203 31.1551C21.8153 31.59 22.4268 32.2157 22.8546 33.0322C23.286 33.8486 23.5017 34.8255 23.5017 35.9628C23.5017 37.1037 23.286 38.0842 22.8546 38.9042C22.4268 39.7242 21.8117 40.3534 21.0096 40.792C20.2109 41.2305 19.2555 41.4498 18.1431 41.4498ZM16.5762 39.4657H18.0468C18.7314 39.4657 19.3072 39.3445 19.7742 39.102C20.2448 38.856 20.5978 38.4763 20.8331 37.9629C21.072 37.446 21.1914 36.7793 21.1914 35.9628C21.1914 35.1535 21.072 34.4922 20.8331 33.9788C20.5978 33.4654 20.2466 33.0874 19.7795 32.845C19.3125 32.6026 18.7367 32.4813 18.0522 32.4813H16.5762V39.4657ZM28.9178 41.6102C28.0728 41.6102 27.3455 41.4391 26.7358 41.0968C26.1297 40.751 25.6627 40.2625 25.3347 39.6315C25.0067 38.9969 24.8427 38.2464 24.8427 37.38C24.8427 36.5351 25.0067 35.7935 25.3347 35.1553C25.6627 34.5171 26.1244 34.0198 26.7198 33.6632C27.3187 33.3067 28.0211 33.1284 28.8269 33.1284C29.3688 33.1284 29.8733 33.2158 30.3403 33.3905C30.8109 33.5616 31.2209 33.8201 31.5703 34.1659C31.9233 34.5118 32.1978 34.9467 32.3939 35.4708C32.59 35.9913 32.688 36.601 32.688 37.2998V37.9255H25.7518V36.5137H30.5435C30.5435 36.1857 30.4722 35.8951 30.3296 35.642C30.187 35.3888 29.9891 35.1909 29.736 35.0483C29.4864 34.9022 29.1959 34.8291 28.8643 34.8291C28.5185 34.8291 28.2118 34.9093 27.9444 35.0697C27.6806 35.2266 27.4738 35.4387 27.3241 35.7061C27.1744 35.97 27.0977 36.2641 27.0941 36.5885V37.9309C27.0941 38.3373 27.169 38.6885 27.3187 38.9844C27.4721 39.2803 27.6878 39.5085 27.9658 39.6689C28.2439 39.8294 28.5737 39.9096 28.9552 39.9096C29.2083 39.9096 29.4401 39.8739 29.6504 39.8026C29.8608 39.7313 30.0408 39.6244 30.1906 39.4817C30.3403 39.3391 30.4544 39.1644 30.5328 38.9576L32.6399 39.0967C32.5329 39.603 32.3137 40.0451 31.9821 40.423C31.6541 40.7973 31.2298 41.0897 30.7093 41.3C30.1923 41.5068 29.5952 41.6102 28.9178 41.6102ZM41.0094 35.5778L38.9237 35.7061C38.888 35.5279 38.8114 35.3674 38.6937 35.2248C38.5761 35.0786 38.421 34.9628 38.2285 34.8772C38.0395 34.7881 37.8131 34.7435 37.5493 34.7435C37.1963 34.7435 36.8986 34.8184 36.6562 34.9681C36.4137 35.1143 36.2925 35.3104 36.2925 35.5564C36.2925 35.7525 36.371 35.9183 36.5278 36.0537C36.6847 36.1892 36.9539 36.298 37.3354 36.38L38.8221 36.6794C39.6207 36.8434 40.2161 37.1073 40.6083 37.4709C41.0004 37.8346 41.1965 38.3123 41.1965 38.9042C41.1965 39.4425 41.0379 39.9149 40.7206 40.3214C40.4068 40.7278 39.9754 41.0451 39.4264 41.2733C38.8809 41.4979 38.2516 41.6102 37.5386 41.6102C36.4512 41.6102 35.5848 41.3838 34.9395 40.931C34.2977 40.4747 33.9216 39.8543 33.8111 39.07L36.0519 38.9523C36.1196 39.2839 36.2836 39.537 36.5439 39.7117C36.8041 39.8828 37.1375 39.9684 37.5439 39.9684C37.9432 39.9684 38.2641 39.8917 38.5065 39.7384C38.7525 39.5816 38.8773 39.3801 38.8809 39.1341C38.8773 38.9273 38.79 38.758 38.6189 38.6261C38.4477 38.4906 38.1839 38.3872 37.8274 38.3159L36.4048 38.0325C35.6026 37.872 35.0055 37.5939 34.6133 37.1982C34.2247 36.8024 34.0304 36.298 34.0304 35.6847C34.0304 35.1571 34.173 34.7025 34.4582 34.321C34.747 33.9395 35.1516 33.6454 35.6722 33.4386C36.1963 33.2318 36.8095 33.1284 37.5118 33.1284C38.5493 33.1284 39.3658 33.3477 39.9612 33.7862C40.5601 34.2248 40.9095 34.8219 41.0094 35.5778ZM44.9735 41.6049C44.4494 41.6049 43.9823 41.5139 43.5723 41.3321C43.1623 41.1467 42.8379 40.874 42.599 40.5139C42.3637 40.1502 42.2461 39.6974 42.2461 39.1555C42.2461 38.6992 42.3298 38.3159 42.4974 38.0057C42.665 37.6955 42.8932 37.446 43.1819 37.257C43.4707 37.0681 43.7987 36.9254 44.166 36.8292C44.5367 36.7329 44.9254 36.6652 45.3318 36.626C45.8095 36.5761 46.1946 36.5297 46.4869 36.4869C46.7793 36.4406 46.9914 36.3728 47.1233 36.2837C47.2553 36.1946 47.3212 36.0627 47.3212 35.888V35.8559C47.3212 35.5172 47.2143 35.2551 47.0003 35.0697C46.79 34.8843 46.4905 34.7916 46.1019 34.7916C45.6919 34.7916 45.3657 34.8826 45.1232 35.0644C44.8808 35.2426 44.7204 35.4673 44.6419 35.7382L42.5348 35.5671C42.6418 35.0679 42.8522 34.6365 43.1659 34.2729C43.4796 33.9057 43.8843 33.624 44.3799 33.4279C44.879 33.2283 45.4566 33.1284 46.1126 33.1284C46.5689 33.1284 47.0057 33.1819 47.4228 33.2889C47.8435 33.3958 48.2161 33.5616 48.5405 33.7862C48.8685 34.0108 49.127 34.2996 49.316 34.6526C49.5049 35.002 49.5994 35.4209 49.5994 35.9093V41.4498H47.4389V40.3107H47.3747C47.2428 40.5674 47.0663 40.7938 46.8453 40.9898C46.6242 41.1824 46.3586 41.3339 46.0484 41.4444C45.7382 41.5514 45.3799 41.6049 44.9735 41.6049ZM45.6259 40.0326C45.9611 40.0326 46.257 39.9666 46.5137 39.8347C46.7704 39.6992 46.9718 39.5174 47.118 39.2892C47.2642 39.061 47.3373 38.8026 47.3373 38.5138V37.6421C47.266 37.6884 47.1679 37.7312 47.0431 37.7704C46.9219 37.8061 46.7846 37.8399 46.6313 37.872C46.478 37.9005 46.3247 37.9273 46.1714 37.9522C46.0181 37.9736 45.8791 37.9932 45.7543 38.0111C45.4869 38.0503 45.2534 38.1127 45.0537 38.1982C44.8541 38.2838 44.699 38.3997 44.5884 38.5459C44.4779 38.6885 44.4227 38.8667 44.4227 39.0806C44.4227 39.3908 44.535 39.6279 44.7596 39.7919C44.9878 39.9524 45.2765 40.0326 45.6259 40.0326ZM55.7843 33.2354V34.9467H50.7145V33.2354H55.7843ZM51.8749 41.4498V32.6418C51.8749 32.0464 51.9908 31.5526 52.2226 31.1604C52.4579 30.7682 52.7787 30.4741 53.1852 30.278C53.5916 30.0819 54.0533 29.9839 54.5703 29.9839C54.9197 29.9839 55.2388 30.0106 55.5276 30.0641C55.8199 30.1176 56.0374 30.1657 56.18 30.2085L55.7736 31.9198C55.6844 31.8913 55.5739 31.8646 55.442 31.8396C55.3136 31.8146 55.1817 31.8022 55.0463 31.8022C54.7111 31.8022 54.4776 31.8806 54.3457 32.0375C54.2138 32.1908 54.1478 32.4065 54.1478 32.6846V41.4498H51.8749ZM57.1761 41.4498V33.2354H59.4543V41.4498H57.1761ZM58.3205 32.1765C57.9818 32.1765 57.6912 32.0642 57.4488 31.8396C57.2099 31.6114 57.0905 31.3387 57.0905 31.0214C57.0905 30.7076 57.2099 30.4384 57.4488 30.2138C57.6912 29.9857 57.9818 29.8716 58.3205 29.8716C58.6592 29.8716 58.948 29.9857 59.1869 30.2138C59.4293 30.4384 59.5505 30.7076 59.5505 31.0214C59.5505 31.3387 59.4293 31.6114 59.1869 31.8396C58.948 32.0642 58.6592 32.1765 58.3205 32.1765ZM64.9907 41.6102C64.16 41.6102 63.4416 41.4337 62.8355 41.0808C62.2329 40.7242 61.7677 40.2287 61.4397 39.594C61.1117 38.9559 60.9477 38.2161 60.9477 37.3747C60.9477 36.5261 61.1117 35.7846 61.4397 35.1499C61.7677 34.5118 62.2329 34.0162 62.8355 33.6632C63.4416 33.3067 64.16 33.1284 64.9907 33.1284C65.8214 33.1284 66.538 33.3067 67.1405 33.6632C67.7466 34.0162 68.2137 34.5118 68.5417 35.1499C68.8697 35.7846 69.0337 36.5261 69.0337 37.3747C69.0337 38.2161 68.8697 38.9559 68.5417 39.594C68.2137 40.2287 67.7466 40.7242 67.1405 41.0808C66.538 41.4337 65.8214 41.6102 64.9907 41.6102ZM65.0014 39.8454C65.3793 39.8454 65.6948 39.7384 65.9479 39.5245C66.2011 39.307 66.3918 39.0111 66.5202 38.6368C66.6521 38.2624 66.718 37.8364 66.718 37.3586C66.718 36.8809 66.6521 36.4548 66.5202 36.0805C66.3918 35.7061 66.2011 35.4102 65.9479 35.1927C65.6948 34.9752 65.3793 34.8665 65.0014 34.8665C64.6199 34.8665 64.299 34.9752 64.0387 35.1927C63.782 35.4102 63.5877 35.7061 63.4558 36.0805C63.3275 36.4548 63.2633 36.8809 63.2633 37.3586C63.2633 37.8364 63.3275 38.2624 63.4558 38.6368C63.5877 39.0111 63.782 39.307 64.0387 39.5245C64.299 39.7384 64.6199 39.8454 65.0014 39.8454ZM77.3497 35.5778L75.264 35.7061C75.2283 35.5279 75.1517 35.3674 75.034 35.2248C74.9164 35.0786 74.7613 34.9628 74.5688 34.8772C74.3798 34.7881 74.1534 34.7435 73.8896 34.7435C73.5366 34.7435 73.2389 34.8184 72.9965 34.9681C72.754 35.1143 72.6328 35.3104 72.6328 35.5564C72.6328 35.7525 72.7112 35.9183 72.8681 36.0537C73.025 36.1892 73.2942 36.298 73.6757 36.38L75.1624 36.6794C75.961 36.8434 76.5564 37.1073 76.9486 37.4709C77.3407 37.8346 77.5368 38.3123 77.5368 38.9042C77.5368 39.4425 77.3782 39.9149 77.0609 40.3214C76.7471 40.7278 76.3157 41.0451 75.7667 41.2733C75.2212 41.4979 74.5919 41.6102 73.8789 41.6102C72.7915 41.6102 71.9251 41.3838 71.2798 40.931C70.638 40.4747 70.2619 39.8543 70.1514 39.07L72.3922 38.9523C72.4599 39.2839 72.6239 39.537 72.8842 39.7117C73.1444 39.8828 73.4778 39.9684 73.8842 39.9684C74.2835 39.9684 74.6044 39.8917 74.8468 39.7384C75.0928 39.5816 75.2176 39.3801 75.2212 39.1341C75.2176 38.9273 75.1303 38.758 74.9591 38.6261C74.788 38.4906 74.5242 38.3872 74.1677 38.3159L72.7451 38.0325C71.9429 37.872 71.3458 37.5939 70.9536 37.1982C70.565 36.8024 70.3707 36.298 70.3707 35.6847C70.3707 35.1571 70.5133 34.7025 70.7985 34.321C71.0873 33.9395 71.4919 33.6454 72.0125 33.4386C72.5366 33.2318 73.1498 33.1284 73.8521 33.1284C74.8896 33.1284 75.7061 33.3477 76.3015 33.7862C76.9004 34.2248 77.2498 34.8219 77.3497 35.5778ZM85.4838 41.5835C84.8599 41.5835 84.2948 41.423 83.7885 41.1022C83.2858 40.7777 82.8865 40.3018 82.5906 39.6743C82.2982 39.0432 82.1521 38.2696 82.1521 37.3533C82.1521 36.412 82.3036 35.6295 82.6066 35.0056C82.9097 34.3781 83.3126 33.9092 83.8153 33.5991C84.3215 33.2853 84.8759 33.1284 85.4785 33.1284C85.9384 33.1284 86.3216 33.2069 86.6283 33.3637C86.9384 33.5171 87.188 33.7096 87.377 33.9413C87.5695 34.1695 87.7157 34.3941 87.8155 34.6152H87.885V30.4973H90.1579V41.4498H87.9117V40.1342H87.8155C87.7085 40.3624 87.557 40.5888 87.3609 40.8134C87.1684 41.0344 86.917 41.218 86.6069 41.3642C86.3003 41.5104 85.9259 41.5835 85.4838 41.5835ZM86.2058 39.7705C86.573 39.7705 86.8832 39.6707 87.1363 39.471C87.393 39.2678 87.5891 38.9844 87.7246 38.6207C87.8636 38.2571 87.9331 37.831 87.9331 37.3426C87.9331 36.8541 87.8654 36.4299 87.7299 36.0698C87.5944 35.7097 87.3984 35.4316 87.1417 35.2355C86.885 35.0394 86.573 34.9414 86.2058 34.9414C85.8314 34.9414 85.5159 35.043 85.2592 35.2462C85.0025 35.4494 84.8082 35.7311 84.6763 36.0912C84.5444 36.4513 84.4784 36.8684 84.4784 37.3426C84.4784 37.8203 84.5444 38.2428 84.6763 38.61C84.8118 38.9737 85.0061 39.2589 85.2592 39.4657C85.5159 39.6689 85.8314 39.7705 86.2058 39.7705ZM95.7745 41.6102C94.9295 41.6102 94.2022 41.4391 93.5926 41.0968C92.9865 40.751 92.5194 40.2625 92.1914 39.6315C91.8634 38.9969 91.6994 38.2464 91.6994 37.38C91.6994 36.5351 91.8634 35.7935 92.1914 35.1553C92.5194 34.5171 92.9811 34.0198 93.5765 33.6632C94.1755 33.3067 94.8778 33.1284 95.6836 33.1284C96.2255 33.1284 96.73 33.2158 97.197 33.3905C97.6677 33.5616 98.0777 33.8201 98.4271 34.1659C98.78 34.5118 99.0545 34.9467 99.2506 35.4708C99.4467 35.9913 99.5448 36.601 99.5448 37.2998V37.9255H92.6085V36.5137H97.4003C97.4003 36.1857 97.329 35.8951 97.1863 35.642C97.0437 35.3888 96.8459 35.1909 96.5927 35.0483C96.3432 34.9022 96.0526 34.8291 95.721 34.8291C95.3752 34.8291 95.0686 34.9093 94.8012 35.0697C94.5373 35.2266 94.3306 35.4387 94.1808 35.7061C94.0311 35.97 93.9544 36.2641 93.9509 36.5885V37.9309C93.9509 38.3373 94.0257 38.6885 94.1755 38.9844C94.3288 39.2803 94.5445 39.5085 94.8226 39.6689C95.1007 39.8294 95.4304 39.9096 95.8119 39.9096C96.0651 39.9096 96.2968 39.8739 96.5072 39.8026C96.7175 39.7313 96.8976 39.6244 97.0473 39.4817C97.197 39.3391 97.3111 39.1644 97.3896 38.9576L99.4966 39.0967C99.3897 39.603 99.1704 40.0451 98.8388 40.423C98.5108 40.7973 98.0866 41.0897 97.566 41.3C97.0491 41.5068 96.4519 41.6102 95.7745 41.6102ZM106.448 41.4498H103.966L107.747 30.4973H110.731L114.507 41.4498H112.025L109.282 33.0001H109.196L106.448 41.4498ZM106.292 37.1447H112.154V38.9523H106.292V37.1447ZM119.101 44.7013C118.363 44.7013 117.73 44.5997 117.202 44.3965C116.678 44.1968 116.261 43.9241 115.951 43.5782C115.641 43.2324 115.439 42.8438 115.346 42.4124L117.454 42.129C117.518 42.293 117.619 42.4463 117.758 42.5889C117.897 42.7315 118.081 42.8456 118.309 42.9311C118.541 43.0203 118.823 43.0648 119.154 43.0648C119.65 43.0648 120.058 42.9436 120.379 42.7012C120.703 42.4623 120.865 42.0612 120.865 41.4979V39.9951H120.769C120.669 40.2233 120.52 40.439 120.32 40.6422C120.12 40.8455 119.864 41.0112 119.55 41.1396C119.236 41.2679 118.862 41.3321 118.427 41.3321C117.81 41.3321 117.249 41.1895 116.742 40.9043C116.24 40.6155 115.838 40.1752 115.539 39.5834C115.243 38.988 115.095 38.2357 115.095 37.3265C115.095 36.396 115.247 35.6188 115.55 34.9949C115.853 34.3709 116.256 33.9039 116.758 33.5937C117.265 33.2835 117.819 33.1284 118.422 33.1284C118.881 33.1284 119.266 33.2069 119.577 33.3637C119.887 33.5171 120.136 33.7096 120.325 33.9413C120.518 34.1695 120.666 34.3941 120.769 34.6152H120.855V33.2354H123.117V41.53C123.117 42.2288 122.946 42.8135 122.604 43.2841C122.261 43.7547 121.787 44.1077 121.181 44.343C120.578 44.5819 119.885 44.7013 119.101 44.7013ZM119.149 39.6208C119.516 39.6208 119.826 39.5299 120.079 39.348C120.336 39.1627 120.532 38.8988 120.668 38.5566C120.807 38.2107 120.876 37.7972 120.876 37.3158C120.876 36.8345 120.808 36.4174 120.673 36.0644C120.537 35.7079 120.341 35.4316 120.085 35.2355C119.828 35.0394 119.516 34.9414 119.149 34.9414C118.774 34.9414 118.459 35.043 118.202 35.2462C117.946 35.4459 117.751 35.724 117.619 36.0805C117.487 36.437 117.421 36.8488 117.421 37.3158C117.421 37.79 117.487 38.2 117.619 38.5459C117.755 38.8881 117.949 39.1537 118.202 39.3427C118.459 39.5281 118.774 39.6208 119.149 39.6208ZM124.93 41.4498V33.2354H127.139V34.6686H127.224C127.374 34.1588 127.625 33.7738 127.978 33.5135C128.331 33.2497 128.738 33.1177 129.198 33.1177C129.312 33.1177 129.435 33.1249 129.567 33.1391C129.698 33.1534 129.814 33.173 129.914 33.198V35.2195C129.807 35.1874 129.659 35.1589 129.47 35.1339C129.281 35.1089 129.108 35.0965 128.952 35.0965C128.616 35.0965 128.317 35.1696 128.053 35.3157C127.793 35.4583 127.586 35.658 127.433 35.9147C127.283 36.1714 127.208 36.4673 127.208 36.8024V41.4498H124.93ZM131.092 41.4498V33.2354H133.37V41.4498H131.092ZM132.236 32.1765C131.898 32.1765 131.607 32.0642 131.365 31.8396C131.126 31.6114 131.006 31.3387 131.006 31.0214C131.006 30.7076 131.126 30.4384 131.365 30.2138C131.607 29.9857 131.898 29.8716 132.236 29.8716C132.575 29.8716 132.864 29.9857 133.103 30.2138C133.345 30.4384 133.466 30.7076 133.466 31.0214C133.466 31.3387 133.345 31.6114 133.103 31.8396C132.864 32.0642 132.575 32.1765 132.236 32.1765ZM138.907 41.6102C138.065 41.6102 137.341 41.4319 136.735 41.0754C136.133 40.7153 135.669 40.2162 135.345 39.578C135.024 38.9398 134.864 38.2054 134.864 37.3747C134.864 36.5333 135.026 35.7953 135.35 35.1606C135.678 34.5225 136.144 34.0251 136.746 33.6686C137.349 33.3085 138.065 33.1284 138.896 33.1284C139.613 33.1284 140.24 33.2586 140.778 33.5188C141.317 33.7791 141.743 34.1445 142.057 34.6152C142.37 35.0858 142.543 35.6384 142.575 36.273H140.425C140.365 35.863 140.204 35.5332 139.944 35.2836C139.687 35.0305 139.35 34.9039 138.933 34.9039C138.58 34.9039 138.272 35.0002 138.008 35.1927C137.748 35.3817 137.545 35.658 137.399 36.0217C137.252 36.3853 137.179 36.8256 137.179 37.3426C137.179 37.8667 137.251 38.3123 137.393 38.6796C137.539 39.0468 137.744 39.3267 138.008 39.5192C138.272 39.7117 138.58 39.808 138.933 39.808C139.194 39.808 139.427 39.7545 139.634 39.6475C139.844 39.5406 140.017 39.3855 140.153 39.1823C140.292 38.9755 140.383 38.7277 140.425 38.4389H142.575C142.54 39.0664 142.368 39.619 142.062 40.0968C141.759 40.5709 141.34 40.9417 140.805 41.2091C140.27 41.4765 139.638 41.6102 138.907 41.6102ZM149.302 37.9522V33.2354H151.58V41.4498H149.393V39.9577H149.307C149.122 40.439 148.813 40.8258 148.382 41.1182C147.954 41.4106 147.432 41.5567 146.815 41.5567C146.266 41.5567 145.783 41.4319 145.366 41.1824C144.948 40.9328 144.622 40.5781 144.387 40.1181C144.155 39.6582 144.037 39.1074 144.034 38.4656V33.2354H146.312V38.0592C146.316 38.5441 146.446 38.9273 146.703 39.209C146.959 39.4907 147.303 39.6315 147.735 39.6315C148.009 39.6315 148.266 39.5691 148.505 39.4443C148.744 39.316 148.936 39.127 149.082 38.8774C149.232 38.6279 149.305 38.3195 149.302 37.9522ZM155.68 30.4973V41.4498H153.402V30.4973H155.68ZM161.875 33.2354V34.9467H156.928V33.2354H161.875ZM158.051 31.2674H160.329V38.9256C160.329 39.1359 160.361 39.2999 160.425 39.4176C160.489 39.5317 160.579 39.6119 160.693 39.6582C160.81 39.7046 160.946 39.7277 161.099 39.7277C161.206 39.7277 161.313 39.7188 161.42 39.701C161.527 39.6796 161.609 39.6636 161.666 39.6529L162.024 41.3482C161.91 41.3838 161.75 41.4248 161.543 41.4712C161.336 41.5211 161.085 41.5514 160.789 41.5621C160.24 41.5835 159.759 41.5104 159.345 41.3428C158.935 41.1752 158.616 40.915 158.388 40.562C158.159 40.2091 158.047 39.7634 158.051 39.225V31.2674ZM168.626 37.9522V33.2354H170.904V41.4498H168.717V39.9577H168.632C168.446 40.439 168.138 40.8258 167.706 41.1182C167.279 41.4106 166.756 41.5567 166.139 41.5567C165.59 41.5567 165.107 41.4319 164.69 41.1824C164.273 40.9328 163.947 40.5781 163.712 40.1181C163.48 39.6582 163.362 39.1074 163.359 38.4656V33.2354H165.637V38.0592C165.64 38.5441 165.77 38.9273 166.027 39.209C166.284 39.4907 166.628 39.6315 167.059 39.6315C167.334 39.6315 167.591 39.5691 167.829 39.4443C168.068 39.316 168.261 39.127 168.407 38.8774C168.557 38.6279 168.63 38.3195 168.626 37.9522ZM172.727 41.4498V33.2354H174.935V34.6686H175.021C175.171 34.1588 175.422 33.7738 175.775 33.5135C176.128 33.2497 176.534 33.1177 176.994 33.1177C177.108 33.1177 177.231 33.1249 177.363 33.1391C177.495 33.1534 177.611 33.173 177.711 33.198V35.2195C177.604 35.1874 177.456 35.1589 177.267 35.1339C177.078 35.1089 176.905 35.0965 176.748 35.0965C176.413 35.0965 176.114 35.1696 175.85 35.3157C175.59 35.4583 175.383 35.658 175.23 35.9147C175.08 36.1714 175.005 36.4673 175.005 36.8024V41.4498H172.727ZM180.996 41.6049C180.472 41.6049 180.005 41.5139 179.595 41.3321C179.185 41.1467 178.86 40.874 178.621 40.5139C178.386 40.1502 178.268 39.6974 178.268 39.1555C178.268 38.6992 178.352 38.3159 178.52 38.0057C178.687 37.6955 178.916 37.446 179.204 37.257C179.493 37.0681 179.821 36.9254 180.188 36.8292C180.559 36.7329 180.948 36.6652 181.354 36.626C181.832 36.5761 182.217 36.5297 182.509 36.4869C182.802 36.4406 183.014 36.3728 183.146 36.2837C183.278 36.1946 183.344 36.0627 183.344 35.888V35.8559C183.344 35.5172 183.237 35.2551 183.023 35.0697C182.812 34.8843 182.513 34.7916 182.124 34.7916C181.714 34.7916 181.388 34.8826 181.146 35.0644C180.903 35.2426 180.743 35.4673 180.664 35.7382L178.557 35.5671C178.664 35.0679 178.875 34.6365 179.188 34.2729C179.502 33.9057 179.907 33.624 180.402 33.4279C180.901 33.2283 181.479 33.1284 182.135 33.1284C182.591 33.1284 183.028 33.1819 183.445 33.2889C183.866 33.3958 184.239 33.5616 184.563 33.7862C184.891 34.0108 185.149 34.2996 185.338 34.6526C185.527 35.002 185.622 35.4209 185.622 35.9093V41.4498H183.461V40.3107H183.397C183.265 40.5674 183.089 40.7938 182.868 40.9898C182.647 41.1824 182.381 41.3339 182.071 41.4444C181.761 41.5514 181.402 41.6049 180.996 41.6049ZM181.648 40.0326C181.983 40.0326 182.279 39.9666 182.536 39.8347C182.793 39.6992 182.994 39.5174 183.14 39.2892C183.287 39.061 183.36 38.8026 183.36 38.5138V37.6421C183.288 37.6884 183.19 37.7312 183.066 37.7704C182.944 37.8061 182.807 37.8399 182.654 37.872C182.5 37.9005 182.347 37.9273 182.194 37.9522C182.041 37.9736 181.901 37.9932 181.777 38.0111C181.509 38.0503 181.276 38.1127 181.076 38.1982C180.876 38.2838 180.721 38.3997 180.611 38.5459C180.5 38.6885 180.445 38.8667 180.445 39.0806C180.445 39.3908 180.557 39.6279 180.782 39.7919C181.01 39.9524 181.299 40.0326 181.648 40.0326Z" fill="#15358D"/>
<circle cx="201.299" cy="37.4315" r="2.49545" fill="#D9D9D9"/>
<circle cx="208.786" cy="37.4315" r="2.49545" fill="#D9D9D9"/>
<circle cx="216.272" cy="37.4315" r="2.49545" fill="#D9D9D9"/>
<path d="M13.9717 55.2105V53.7879H22.4481V55.2105H19.0308V64.7404H17.3837V55.2105H13.9717ZM26.542 64.9062C25.7326 64.9062 25.0356 64.7333 24.4509 64.3875C23.8698 64.0381 23.4206 63.5478 23.1033 62.9168C22.7895 62.2822 22.6327 61.5388 22.6327 60.6867C22.6327 59.8453 22.7895 59.1037 23.1033 58.462C23.4206 57.8202 23.8627 57.3193 24.4295 56.9592C25 56.5991 25.6667 56.4191 26.4297 56.4191C26.8931 56.4191 27.3424 56.4957 27.7773 56.649C28.2123 56.8024 28.6027 57.043 28.9485 57.371C29.2943 57.699 29.5671 58.1251 29.7667 58.6492C29.9664 59.1697 30.0662 59.8025 30.0662 60.5477V61.1145H23.5364V59.9166H28.4993C28.4993 59.4959 28.4137 59.1233 28.2426 58.7989C28.0715 58.4709 27.8308 58.2124 27.5206 58.0235C27.214 57.8345 26.8539 57.74 26.4404 57.74C25.9911 57.74 25.599 57.8505 25.2638 58.0716C24.9322 58.2891 24.6755 58.5743 24.4937 58.9273C24.3155 59.2766 24.2263 59.6564 24.2263 60.0664V61.0022C24.2263 61.5513 24.3226 62.0183 24.5151 62.4034C24.7112 62.7884 24.9839 63.0826 25.3333 63.2858C25.6827 63.4854 26.091 63.5853 26.558 63.5853C26.8611 63.5853 27.1374 63.5425 27.3869 63.4569C27.6365 63.3678 27.8522 63.2359 28.034 63.0612C28.2159 62.8865 28.3549 62.6708 28.4512 62.4141L29.9646 62.6868C29.8434 63.1325 29.6259 63.5229 29.3122 63.858C29.002 64.1896 28.6116 64.4481 28.141 64.6335C27.6739 64.8153 27.1409 64.9062 26.542 64.9062ZM35.3005 64.9062C34.5054 64.9062 33.8209 64.7262 33.2469 64.3661C32.6764 64.0024 32.2379 63.5015 31.9313 62.8633C31.6247 62.2251 31.4714 61.4942 31.4714 60.6707C31.4714 59.8364 31.6283 59.1002 31.942 58.462C32.2557 57.8202 32.6978 57.3193 33.2683 56.9592C33.8387 56.5991 34.5108 56.4191 35.2844 56.4191C35.9084 56.4191 36.4645 56.535 36.953 56.7667C37.4414 56.9949 37.8354 57.3158 38.1349 57.7293C38.4379 58.1429 38.618 58.626 38.675 59.1786H37.1188C37.0332 58.7936 36.8371 58.462 36.5305 58.1839C36.2274 57.9058 35.821 57.7668 35.3112 57.7668C34.8655 57.7668 34.4751 57.8844 34.14 58.1197C33.8084 58.3515 33.5499 58.683 33.3645 59.1144C33.1791 59.5423 33.0865 60.0485 33.0865 60.6332C33.0865 61.2322 33.1774 61.7492 33.3592 62.1841C33.541 62.6191 33.7977 62.956 34.1293 63.1949C34.4644 63.4337 34.8584 63.5532 35.3112 63.5532C35.6142 63.5532 35.8887 63.4979 36.1348 63.3874C36.3843 63.2733 36.5929 63.1111 36.7605 62.9007C36.9316 62.6904 37.051 62.4373 37.1188 62.1413H38.675C38.618 62.6726 38.445 63.1467 38.1563 63.5639C37.8675 63.981 37.4806 64.309 36.9958 64.5479C36.5145 64.7868 35.9494 64.9062 35.3005 64.9062ZM41.984 59.8631V64.7404H40.385V53.7879H41.9626V57.863H42.0642C42.2568 57.4209 42.5509 57.0698 42.9466 56.8095C43.3424 56.5492 43.8593 56.4191 44.4975 56.4191C45.0608 56.4191 45.5528 56.535 45.9735 56.7667C46.3978 56.9984 46.7258 57.3443 46.9576 57.8042C47.1929 58.2605 47.3105 58.831 47.3105 59.5155V64.7404H45.7115V59.708C45.7115 59.1055 45.5564 58.6385 45.2462 58.3069C44.9361 57.9718 44.5047 57.8042 43.952 57.8042C43.5741 57.8042 43.2354 57.8844 42.9359 58.0449C42.64 58.2053 42.4065 58.4406 42.2354 58.7508C42.0678 59.0574 41.984 59.4282 41.984 59.8631ZM59.5318 56.6651C59.4748 56.1588 59.2394 55.7666 58.8259 55.4886C58.4123 55.2069 57.8918 55.0661 57.2643 55.0661C56.8151 55.0661 56.4265 55.1374 56.0985 55.28C55.7704 55.419 55.5155 55.6116 55.3337 55.8576C55.1554 56.1 55.0663 56.3763 55.0663 56.6865C55.0663 56.9467 55.1269 57.1714 55.2481 57.3603C55.3729 57.5493 55.5351 57.7079 55.7348 57.8363C55.938 57.9611 56.1555 58.0662 56.3872 58.1518C56.619 58.2338 56.8418 58.3015 57.0557 58.355L58.1253 58.6331C58.4747 58.7187 58.833 58.8346 59.2002 58.9807C59.5675 59.1269 59.9079 59.3194 60.2217 59.5583C60.5354 59.7972 60.7886 60.0931 60.9811 60.4461C61.1772 60.799 61.2752 61.2215 61.2752 61.7135C61.2752 62.3339 61.1148 62.8847 60.7939 63.366C60.4766 63.8473 60.0149 64.227 59.4088 64.5051C58.8063 64.7832 58.0772 64.9222 57.2215 64.9222C56.4015 64.9222 55.692 64.7921 55.093 64.5318C54.4941 64.2716 54.0252 63.9026 53.6865 63.4248C53.3478 62.9435 53.1607 62.3731 53.125 61.7135H54.7829C54.815 62.1093 54.9433 62.439 55.1679 62.7029C55.3961 62.9631 55.6867 63.1574 56.0396 63.2858C56.3962 63.4106 56.7865 63.473 57.2108 63.473C57.6779 63.473 58.0932 63.3999 58.4569 63.2537C58.8241 63.104 59.1129 62.8972 59.3232 62.6333C59.5336 62.366 59.6388 62.054 59.6388 61.6975C59.6388 61.373 59.5461 61.1074 59.3607 60.9006C59.1788 60.6938 58.9311 60.5227 58.6173 60.3872C58.3071 60.2517 57.956 60.1323 57.5638 60.0289L56.2696 59.676C55.3925 59.4371 54.6973 59.0859 54.1839 58.6224C53.6741 58.1589 53.4192 57.5457 53.4192 56.7827C53.4192 56.1517 53.5903 55.6009 53.9326 55.1302C54.2748 54.6596 54.7383 54.2942 55.323 54.0339C55.9077 53.7701 56.5673 53.6382 57.3017 53.6382C58.0433 53.6382 58.6975 53.7683 59.2644 54.0286C59.8348 54.2888 60.2841 54.6472 60.6121 55.1035C60.9401 55.5563 61.1112 56.0768 61.1255 56.6651H59.5318ZM66.5817 64.9062C65.8116 64.9062 65.1395 64.7297 64.5655 64.3768C63.9915 64.0238 63.5458 63.53 63.2285 62.8954C62.9112 62.2608 62.7526 61.5192 62.7526 60.6707C62.7526 59.8186 62.9112 59.0734 63.2285 58.4352C63.5458 57.7971 63.9915 57.3015 64.5655 56.9485C65.1395 56.5956 65.8116 56.4191 66.5817 56.4191C67.3518 56.4191 68.0238 56.5956 68.5978 56.9485C69.1718 57.3015 69.6175 57.7971 69.9348 58.4352C70.2521 59.0734 70.4108 59.8186 70.4108 60.6707C70.4108 61.5192 70.2521 62.2608 69.9348 62.8954C69.6175 63.53 69.1718 64.0238 68.5978 64.3768C68.0238 64.7297 67.3518 64.9062 66.5817 64.9062ZM66.587 63.5639C67.0862 63.5639 67.4997 63.432 67.8277 63.1681C68.1557 62.9043 68.3982 62.5531 68.555 62.1146C68.7155 61.6761 68.7957 61.193 68.7957 60.6653C68.7957 60.1412 68.7155 59.6599 68.555 59.2214C68.3982 58.7793 68.1557 58.4246 67.8277 58.1572C67.4997 57.8898 67.0862 57.7561 66.587 57.7561C66.0843 57.7561 65.6672 57.8898 65.3356 58.1572C65.0076 58.4246 64.7634 58.7793 64.6029 59.2214C64.4461 59.6599 64.3676 60.1412 64.3676 60.6653C64.3676 61.193 64.4461 61.6761 64.6029 62.1146C64.7634 62.5531 65.0076 62.9043 65.3356 63.1681C65.6672 63.432 66.0843 63.5639 66.587 63.5639ZM73.7946 53.7879V64.7404H72.1956V53.7879H73.7946ZM81.1493 61.3338V56.526H82.7537V64.7404H81.1814V63.3179H81.0959C80.9069 63.7564 80.6039 64.1218 80.1867 64.4142C79.7731 64.703 79.258 64.8474 78.6412 64.8474C78.1135 64.8474 77.6465 64.7315 77.24 64.4998C76.8372 64.2645 76.5198 63.9168 76.2881 63.4569C76.0599 62.997 75.9458 62.4283 75.9458 61.7509V56.526H77.5449V61.5584C77.5449 62.1182 77.6999 62.5638 78.0101 62.8954C78.3203 63.227 78.7232 63.3927 79.2187 63.3927C79.5182 63.3927 79.8159 63.3179 80.1118 63.1681C80.4113 63.0184 80.6591 62.792 80.8552 62.489C81.0549 62.1859 81.1529 61.8009 81.1493 61.3338ZM88.7367 56.526V57.8095H84.2498V56.526H88.7367ZM85.4531 54.558H87.0521V62.3285C87.0521 62.6387 87.0984 62.8722 87.1911 63.0291C87.2838 63.1824 87.4033 63.2876 87.5494 63.3446C87.6992 63.3981 87.8614 63.4248 88.0361 63.4248C88.1644 63.4248 88.2767 63.4159 88.373 63.3981C88.4693 63.3803 88.5441 63.366 88.5976 63.3553L88.8864 64.6762C88.7937 64.7119 88.6618 64.7475 88.4907 64.7832C88.3195 64.8224 88.1056 64.8438 87.8489 64.8474C87.4282 64.8545 87.036 64.7796 86.6724 64.6228C86.3087 64.4659 86.0146 64.2235 85.79 63.8954C85.5654 63.5674 85.4531 63.1557 85.4531 62.6601V54.558ZM90.5055 64.7404V56.526H92.1045V64.7404H90.5055ZM91.313 55.2586C91.0349 55.2586 90.7961 55.1659 90.5964 54.9805C90.4003 54.7915 90.3023 54.5669 90.3023 54.3067C90.3023 54.0428 90.4003 53.8182 90.5964 53.6328C90.7961 53.4439 91.0349 53.3494 91.313 53.3494C91.5911 53.3494 91.8282 53.4439 92.0243 53.6328C92.2239 53.8182 92.3238 54.0428 92.3238 54.3067C92.3238 54.5669 92.2239 54.7915 92.0243 54.9805C91.8282 55.1659 91.5911 55.2586 91.313 55.2586ZM97.7158 64.9062C96.9457 64.9062 96.2736 64.7297 95.6996 64.3768C95.1256 64.0238 94.68 63.53 94.3627 62.8954C94.0453 62.2608 93.8867 61.5192 93.8867 60.6707C93.8867 59.8186 94.0453 59.0734 94.3627 58.4352C94.68 57.7971 95.1256 57.3015 95.6996 56.9485C96.2736 56.5956 96.9457 56.4191 97.7158 56.4191C98.4859 56.4191 99.1579 56.5956 99.7319 56.9485C100.306 57.3015 100.752 57.7971 101.069 58.4352C101.386 59.0734 101.545 59.8186 101.545 60.6707C101.545 61.5192 101.386 62.2608 101.069 62.8954C100.752 63.53 100.306 64.0238 99.7319 64.3768C99.1579 64.7297 98.4859 64.9062 97.7158 64.9062ZM97.7211 63.5639C98.2203 63.5639 98.6338 63.432 98.9618 63.1681C99.2899 62.9043 99.5323 62.5531 99.6892 62.1146C99.8496 61.6761 99.9298 61.193 99.9298 60.6653C99.9298 60.1412 99.8496 59.6599 99.6892 59.2214C99.5323 58.7793 99.2899 58.4246 98.9618 58.1572C98.6338 57.8898 98.2203 57.7561 97.7211 57.7561C97.2184 57.7561 96.8013 57.8898 96.4697 58.1572C96.1417 58.4246 95.8975 58.7793 95.7371 59.2214C95.5802 59.6599 95.5018 60.1412 95.5018 60.6653C95.5018 61.193 95.5802 61.6761 95.7371 62.1146C95.8975 62.5531 96.1417 62.9043 96.4697 63.1681C96.8013 63.432 97.2184 63.5639 97.7211 63.5639ZM104.929 59.8631V64.7404H103.33V56.526H104.865V57.863H104.966C105.155 57.4281 105.451 57.0787 105.854 56.8148C106.26 56.551 106.772 56.4191 107.389 56.4191C107.949 56.4191 108.439 56.5367 108.859 56.7721C109.28 57.0038 109.606 57.3496 109.838 57.8095C110.07 58.2695 110.186 58.8381 110.186 59.5155V64.7404H108.587V59.708C108.587 59.1126 108.432 58.6474 108.121 58.3122C107.811 57.9735 107.385 57.8042 106.843 57.8042C106.473 57.8042 106.143 57.8844 105.854 58.0449C105.569 58.2053 105.342 58.4406 105.175 58.7508C105.011 59.0574 104.929 59.4282 104.929 59.8631ZM118.486 58.5315L117.036 58.7882C116.976 58.6028 116.88 58.4263 116.748 58.2588C116.619 58.0912 116.445 57.9539 116.224 57.847C116.002 57.74 115.726 57.6865 115.395 57.6865C114.942 57.6865 114.564 57.7882 114.261 57.9914C113.958 58.191 113.806 58.4495 113.806 58.7668C113.806 59.0413 113.908 59.2624 114.111 59.43C114.314 59.5975 114.642 59.7348 115.095 59.8417L116.4 60.1412C117.156 60.3159 117.719 60.5851 118.09 60.9488C118.461 61.3124 118.646 61.7848 118.646 62.366C118.646 62.858 118.504 63.2965 118.218 63.6815C117.937 64.063 117.543 64.3625 117.036 64.58C116.534 64.7975 115.951 64.9062 115.288 64.9062C114.368 64.9062 113.617 64.7101 113.036 64.3179C112.455 63.9222 112.099 63.3607 111.967 62.6333L113.512 62.398C113.608 62.8009 113.806 63.1057 114.106 63.3125C114.405 63.5157 114.796 63.6174 115.277 63.6174C115.801 63.6174 116.22 63.5086 116.534 63.2911C116.847 63.0701 117.004 62.8009 117.004 62.4836C117.004 62.2269 116.908 62.0112 116.716 61.8365C116.527 61.6618 116.236 61.5299 115.844 61.4408L114.453 61.1359C113.687 60.9612 113.12 60.6831 112.753 60.3017C112.389 59.9202 112.207 59.4371 112.207 58.8524C112.207 58.3675 112.343 57.9432 112.614 57.5796C112.885 57.2159 113.259 56.9325 113.737 56.7293C114.214 56.5225 114.762 56.4191 115.379 56.4191C116.266 56.4191 116.965 56.6116 117.475 56.9967C117.985 57.3781 118.322 57.8898 118.486 58.5315ZM131.417 56.526L128.438 64.7404H126.727L123.743 56.526H125.459L127.54 62.8473H127.625L129.7 56.526H131.417ZM133.048 64.7404V53.7879H134.701V63.3179H139.663V64.7404H133.048ZM139.582 55.2105V53.7879H148.058V55.2105H144.641V64.7404H142.994V55.2105H139.582ZM153.477 64.7404H149.931V53.7879H153.589C154.662 53.7879 155.584 54.0072 156.354 54.4457C157.124 54.8807 157.714 55.5064 158.124 56.3228C158.538 57.1357 158.745 58.1108 158.745 59.2481C158.745 60.389 158.536 61.3695 158.119 62.1895C157.705 63.0095 157.106 63.6405 156.322 64.0826C155.538 64.5212 154.589 64.7404 153.477 64.7404ZM151.584 63.2965H153.386C154.22 63.2965 154.914 63.1396 155.466 62.8259C156.019 62.5086 156.433 62.0504 156.707 61.4515C156.982 60.8489 157.119 60.1145 157.119 59.2481C157.119 58.3889 156.982 57.6598 156.707 57.0608C156.436 56.4619 156.031 56.0073 155.493 55.6971C154.955 55.3869 154.286 55.2319 153.488 55.2319H151.584V63.2965ZM161.181 64.7404H159.427L163.368 53.7879H165.277L169.219 64.7404H167.464L164.368 55.7773H164.282L161.181 64.7404ZM161.475 60.4514H167.165V61.8419H161.475V60.4514ZM15.4371 82.7404H13.6829L17.6243 71.7879H19.5335L23.4749 82.7404H21.7208L18.6244 73.7773H18.5388L15.4371 82.7404ZM15.7312 78.4514H21.4214V79.8419H15.7312V78.4514ZM30.1317 79.3338V74.526H31.7361V82.7404H30.1638V81.3179H30.0783C29.8893 81.7564 29.5863 82.1218 29.1691 82.4142C28.7555 82.703 28.2404 82.8474 27.6236 82.8474C27.0959 82.8474 26.6289 82.7315 26.2224 82.4998C25.8196 82.2645 25.5022 81.9168 25.2705 81.4569C25.0423 80.997 24.9282 80.4283 24.9282 79.7509V74.526H26.5273V79.5584C26.5273 80.1182 26.6823 80.5638 26.9925 80.8954C27.3027 81.227 27.7056 81.3927 28.2011 81.3927C28.5006 81.3927 28.7983 81.3179 29.0942 81.1681C29.3937 81.0184 29.6415 80.792 29.8376 80.489C30.0373 80.1859 30.1353 79.8009 30.1317 79.3338ZM37.7191 74.526V75.8095H33.2322V74.526H37.7191ZM34.4355 72.558H36.0345V80.3285C36.0345 80.6387 36.0808 80.8722 36.1735 81.0291C36.2662 81.1824 36.3857 81.2876 36.5318 81.3446C36.6816 81.3981 36.8438 81.4248 37.0185 81.4248C37.1468 81.4248 37.2592 81.4159 37.3554 81.3981C37.4517 81.3803 37.5265 81.366 37.58 81.3553L37.8688 82.6762C37.7761 82.7119 37.6442 82.7475 37.4731 82.7832C37.3019 82.8224 37.088 82.8438 36.8313 82.8474C36.4106 82.8545 36.0184 82.7796 35.6548 82.6228C35.2911 82.4659 34.997 82.2235 34.7724 81.8954C34.5478 81.5674 34.4355 81.1557 34.4355 80.6601V72.558ZM42.8597 82.9062C42.0896 82.9062 41.4176 82.7297 40.8436 82.3768C40.2696 82.0238 39.8239 81.53 39.5066 80.8954C39.1893 80.2608 39.0306 79.5192 39.0306 78.6707C39.0306 77.8186 39.1893 77.0734 39.5066 76.4352C39.8239 75.7971 40.2696 75.3015 40.8436 74.9485C41.4176 74.5956 42.0896 74.4191 42.8597 74.4191C43.6298 74.4191 44.3019 74.5956 44.8759 74.9485C45.4499 75.3015 45.8956 75.7971 46.2129 76.4352C46.5302 77.0734 46.6888 77.8186 46.6888 78.6707C46.6888 79.5192 46.5302 80.2608 46.2129 80.8954C45.8956 81.53 45.4499 82.0238 44.8759 82.3768C44.3019 82.7297 43.6298 82.9062 42.8597 82.9062ZM42.8651 81.5639C43.3642 81.5639 43.7778 81.432 44.1058 81.1681C44.4338 80.9043 44.6762 80.5531 44.8331 80.1146C44.9935 79.6761 45.0738 79.193 45.0738 78.6653C45.0738 78.1412 44.9935 77.6599 44.8331 77.2214C44.6762 76.7793 44.4338 76.4246 44.1058 76.1572C43.7778 75.8898 43.3642 75.7561 42.8651 75.7561C42.3624 75.7561 41.9452 75.8898 41.6137 76.1572C41.2857 76.4246 41.0415 76.7793 40.881 77.2214C40.7241 77.6599 40.6457 78.1412 40.6457 78.6653C40.6457 79.193 40.7241 79.6761 40.881 80.1146C41.0415 80.5531 41.2857 80.9043 41.6137 81.1681C41.9452 81.432 42.3624 81.5639 42.8651 81.5639ZM48.4737 82.7404V74.526H50.0192V75.8309H50.1048C50.2545 75.3888 50.5184 75.0412 50.8963 74.7881C51.2778 74.5314 51.7092 74.403 52.1905 74.403C52.2903 74.403 52.408 74.4066 52.5434 74.4137C52.6825 74.4209 52.7912 74.4298 52.8697 74.4405V75.97C52.8055 75.9522 52.6914 75.9325 52.5274 75.9112C52.3634 75.8862 52.1994 75.8737 52.0354 75.8737C51.6575 75.8737 51.3206 75.9539 51.0246 76.1144C50.7323 76.2712 50.5005 76.4905 50.3294 76.7722C50.1583 77.0503 50.0727 77.3676 50.0727 77.7241V82.7404H48.4737ZM61.314 82.9009C60.6508 82.9009 60.059 82.7315 59.5385 82.3928C59.0215 82.0505 58.6151 81.5639 58.3192 80.9328C58.0268 80.2982 57.8806 79.537 57.8806 78.6493C57.8806 77.7615 58.0286 77.0021 58.3245 76.3711C58.624 75.74 59.034 75.2569 59.5545 74.9218C60.0751 74.5867 60.6651 74.4191 61.3247 74.4191C61.8345 74.4191 62.2445 74.5047 62.5547 74.6758C62.8684 74.8434 63.1109 75.0394 63.282 75.2641C63.4567 75.4887 63.5922 75.6865 63.6885 75.8577H63.7847V71.7879H65.3837V82.7404H63.8222V81.4623H63.6885C63.5922 81.637 63.4531 81.8366 63.2713 82.0612C63.0931 82.2858 62.8471 82.4819 62.5333 82.6495C62.2196 82.8171 61.8131 82.9009 61.314 82.9009ZM61.6669 81.5371C62.1269 81.5371 62.5155 81.4159 62.8328 81.1735C63.1537 80.9275 63.3961 80.587 63.5601 80.152C63.7277 79.7171 63.8115 79.2108 63.8115 78.6332C63.8115 78.0628 63.7295 77.5637 63.5655 77.1358C63.4015 76.708 63.1608 76.3746 62.8435 76.1358C62.5262 75.8969 62.134 75.7775 61.6669 75.7775C61.1856 75.7775 60.7845 75.9022 60.4637 76.1518C60.1428 76.4014 59.9004 76.7419 59.7364 77.1733C59.5759 77.6047 59.4957 78.0913 59.4957 78.6332C59.4957 79.1823 59.5777 79.6761 59.7417 80.1146C59.9057 80.5531 60.1481 80.9007 60.469 81.1574C60.7935 81.4106 61.1928 81.5371 61.6669 81.5371ZM71.2063 82.9062C70.3969 82.9062 69.6999 82.7333 69.1152 82.3875C68.5341 82.0381 68.0849 81.5478 67.7676 80.9168C67.4538 80.2822 67.2969 79.5388 67.2969 78.6867C67.2969 77.8453 67.4538 77.1037 67.7676 76.462C68.0849 75.8202 68.527 75.3193 69.0938 74.9592C69.6643 74.5991 70.331 74.4191 71.094 74.4191C71.5574 74.4191 72.0067 74.4957 72.4416 74.649C72.8766 74.8024 73.267 75.043 73.6128 75.371C73.9586 75.699 74.2314 76.1251 74.431 76.6492C74.6307 77.1697 74.7305 77.8025 74.7305 78.5477V79.1145H68.2007V77.9166H73.1636C73.1636 77.4959 73.078 77.1233 72.9069 76.7989C72.7358 76.4709 72.4951 76.2124 72.1849 76.0235C71.8783 75.8345 71.5182 75.74 71.1047 75.74C70.6554 75.74 70.2632 75.8505 69.9281 76.0716C69.5965 76.2891 69.3398 76.5743 69.158 76.9273C68.9798 77.2766 68.8906 77.6564 68.8906 78.0664V79.0022C68.8906 79.5513 68.9869 80.0183 69.1794 80.4034C69.3755 80.7884 69.6482 81.0826 69.9976 81.2858C70.347 81.4854 70.7553 81.5853 71.2223 81.5853C71.5254 81.5853 71.8017 81.5425 72.0512 81.4569C72.3008 81.3678 72.5165 81.2359 72.6983 81.0612C72.8802 80.8865 73.0192 80.6708 73.1155 80.4141L74.6289 80.6868C74.5077 81.1325 74.2902 81.5229 73.9765 81.858C73.6663 82.1896 73.2759 82.4481 72.8053 82.6335C72.3382 82.8153 71.8052 82.9062 71.2063 82.9062ZM82.6601 76.5315L81.2108 76.7882C81.1502 76.6028 81.054 76.4263 80.9221 76.2588C80.7937 76.0912 80.619 75.9539 80.398 75.847C80.1769 75.74 79.9006 75.6865 79.569 75.6865C79.1162 75.6865 78.7383 75.7882 78.4353 75.9914C78.1322 76.191 77.9807 76.4495 77.9807 76.7668C77.9807 77.0413 78.0823 77.2624 78.2855 77.43C78.4888 77.5975 78.8168 77.7348 79.2695 77.8417L80.5744 78.1412C81.3303 78.3159 81.8936 78.5851 82.2644 78.9488C82.6352 79.3124 82.8206 79.7848 82.8206 80.366C82.8206 80.858 82.6779 81.2965 82.3927 81.6815C82.1111 82.063 81.7171 82.3625 81.2108 82.58C80.7081 82.7975 80.1252 82.9062 79.4621 82.9062C78.5422 82.9062 77.7917 82.7101 77.2106 82.3179C76.6295 81.9222 76.2729 81.3607 76.141 80.6333L77.6866 80.398C77.7828 80.8009 77.9807 81.1057 78.2802 81.3125C78.5797 81.5157 78.9701 81.6174 79.4514 81.6174C79.9755 81.6174 80.3944 81.5086 80.7081 81.2911C81.0219 81.0701 81.1787 80.8009 81.1787 80.4836C81.1787 80.2269 81.0825 80.0112 80.89 79.8365C80.701 79.6618 80.4104 79.5299 80.0183 79.4408L78.6278 79.1359C77.8613 78.9612 77.2944 78.6831 76.9272 78.3017C76.5635 77.9202 76.3817 77.4371 76.3817 76.8524C76.3817 76.3675 76.5172 75.9432 76.7881 75.5796C77.0591 75.2159 77.4334 74.9325 77.9112 74.7293C78.3889 74.5225 78.9362 74.4191 79.553 74.4191C80.4407 74.4191 81.1395 74.6116 81.6494 74.9967C82.1592 75.3781 82.4961 75.8898 82.6601 76.5315ZM88.0388 82.9062C87.2437 82.9062 86.5592 82.7262 85.9852 82.3661C85.4147 82.0024 84.9762 81.5015 84.6696 80.8633C84.363 80.2251 84.2097 79.4942 84.2097 78.6707C84.2097 77.8364 84.3665 77.1002 84.6803 76.462C84.994 75.8202 85.4361 75.3193 86.0066 74.9592C86.577 74.5991 87.2491 74.4191 88.0227 74.4191C88.6466 74.4191 89.2028 74.535 89.6913 74.7667C90.1797 74.9949 90.5737 75.3158 90.8731 75.7293C91.1762 76.1429 91.3562 76.626 91.4133 77.1786H89.857C89.7715 76.7936 89.5754 76.462 89.2688 76.1839C88.9657 75.9058 88.5593 75.7668 88.0495 75.7668C87.6038 75.7668 87.2134 75.8844 86.8783 76.1197C86.5467 76.3515 86.2882 76.683 86.1028 77.1144C85.9174 77.5423 85.8247 78.0485 85.8247 78.6332C85.8247 79.2322 85.9156 79.7492 86.0975 80.1841C86.2793 80.6191 86.536 80.956 86.8676 81.1949C87.2027 81.4337 87.5967 81.5532 88.0495 81.5532C88.3525 81.5532 88.627 81.4979 88.873 81.3874C89.1226 81.2733 89.3312 81.1111 89.4987 80.9007C89.6699 80.6904 89.7893 80.4373 89.857 80.1413H91.4133C91.3562 80.6726 91.1833 81.1467 90.8945 81.5639C90.6058 81.981 90.2189 82.309 89.734 82.5479C89.2527 82.7868 88.6876 82.9062 88.0388 82.9062ZM96.5834 82.9062C95.8133 82.9062 95.1412 82.7297 94.5672 82.3768C93.9932 82.0238 93.5475 81.53 93.2302 80.8954C92.9129 80.2608 92.7543 79.5192 92.7543 78.6707C92.7543 77.8186 92.9129 77.0734 93.2302 76.4352C93.5475 75.7971 93.9932 75.3015 94.5672 74.9485C95.1412 74.5956 95.8133 74.4191 96.5834 74.4191C97.3535 74.4191 98.0255 74.5956 98.5995 74.9485C99.1735 75.3015 99.6192 75.7971 99.9365 76.4352C100.254 77.0734 100.412 77.8186 100.412 78.6707C100.412 79.5192 100.254 80.2608 99.9365 80.8954C99.6192 81.53 99.1735 82.0238 98.5995 82.3768C98.0255 82.7297 97.3535 82.9062 96.5834 82.9062ZM96.5887 81.5639C97.0878 81.5639 97.5014 81.432 97.8294 81.1681C98.1574 80.9043 98.3999 80.5531 98.5567 80.1146C98.7172 79.6761 98.7974 79.193 98.7974 78.6653C98.7974 78.1412 98.7172 77.6599 98.5567 77.2214C98.3999 76.7793 98.1574 76.4246 97.8294 76.1572C97.5014 75.8898 97.0878 75.7561 96.5887 75.7561C96.086 75.7561 95.6689 75.8898 95.3373 76.1572C95.0093 76.4246 94.7651 76.7793 94.6046 77.2214C94.4478 77.6599 94.3693 78.1412 94.3693 78.6653C94.3693 79.193 94.4478 79.6761 94.6046 80.1146C94.7651 80.5531 95.0093 80.9043 95.3373 81.1681C95.6689 81.432 96.086 81.5639 96.5887 81.5639ZM103.796 77.8631V82.7404H102.197V74.526H103.732V75.863H103.834C104.023 75.4281 104.319 75.0787 104.722 74.8148C105.128 74.551 105.64 74.4191 106.256 74.4191C106.816 74.4191 107.306 74.5367 107.727 74.7721C108.148 75.0038 108.474 75.3496 108.706 75.8095C108.937 76.2695 109.053 76.8381 109.053 77.5155V82.7404H107.454V77.708C107.454 77.1126 107.299 76.6474 106.989 76.3122C106.679 75.9735 106.253 75.8042 105.711 75.8042C105.34 75.8042 105.01 75.8844 104.722 76.0449C104.436 76.2053 104.21 76.4406 104.042 76.7508C103.878 77.0574 103.796 77.4282 103.796 77.8631ZM112.797 77.8631V82.7404H111.198V71.7879H112.775V75.863H112.877C113.07 75.4209 113.364 75.0698 113.759 74.8095C114.155 74.5492 114.672 74.4191 115.31 74.4191C115.874 74.4191 116.366 74.535 116.786 74.7667C117.211 74.9984 117.539 75.3443 117.77 75.8042C118.006 76.2605 118.123 76.831 118.123 77.5155V82.7404H116.524V77.708C116.524 77.1055 116.369 76.6385 116.059 76.3069C115.749 75.9718 115.317 75.8042 114.765 75.8042C114.387 75.8042 114.048 75.8844 113.749 76.0449C113.453 76.2053 113.219 76.4406 113.048 76.7508C112.881 77.0574 112.797 77.4282 112.797 77.8631ZM123.797 82.9062C122.988 82.9062 122.291 82.7333 121.706 82.3875C121.125 82.0381 120.676 81.5478 120.359 80.9168C120.045 80.2822 119.888 79.5388 119.888 78.6867C119.888 77.8453 120.045 77.1037 120.359 76.462C120.676 75.8202 121.118 75.3193 121.685 74.9592C122.256 74.5991 122.922 74.4191 123.685 74.4191C124.149 74.4191 124.598 74.4957 125.033 74.649C125.468 74.8024 125.858 75.043 126.204 75.371C126.55 75.699 126.823 76.1251 127.022 76.6492C127.222 77.1697 127.322 77.8025 127.322 78.5477V79.1145H120.792V77.9166H125.755C125.755 77.4959 125.669 77.1233 125.498 76.7989C125.327 76.4709 125.086 76.2124 124.776 76.0235C124.47 75.8345 124.109 75.74 123.696 75.74C123.247 75.74 122.854 75.8505 122.519 76.0716C122.188 76.2891 121.931 76.5743 121.749 76.9273C121.571 77.2766 121.482 77.6564 121.482 78.0664V79.0022C121.482 79.5513 121.578 80.0183 121.771 80.4034C121.967 80.7884 122.239 81.0826 122.589 81.2858C122.938 81.4854 123.346 81.5853 123.814 81.5853C124.117 81.5853 124.393 81.5425 124.642 81.4569C124.892 81.3678 125.108 81.2359 125.29 81.0612C125.471 80.8865 125.61 80.6708 125.707 80.4141L127.22 80.6868C127.099 81.1325 126.881 81.5229 126.568 81.858C126.258 82.1896 125.867 82.4481 125.396 82.6335C124.929 82.8153 124.396 82.9062 123.797 82.9062ZM132.556 82.9062C131.761 82.9062 131.076 82.7262 130.502 82.3661C129.932 82.0024 129.493 81.5015 129.187 80.8633C128.88 80.2251 128.727 79.4942 128.727 78.6707C128.727 77.8364 128.884 77.1002 129.198 76.462C129.511 75.8202 129.953 75.3193 130.524 74.9592C131.094 74.5991 131.766 74.4191 132.54 74.4191C133.164 74.4191 133.72 74.535 134.208 74.7667C134.697 74.9949 135.091 75.3158 135.39 75.7293C135.693 76.1429 135.873 76.626 135.931 77.1786H134.374C134.289 76.7936 134.093 76.462 133.786 76.1839C133.483 75.9058 133.077 75.7668 132.567 75.7668C132.121 75.7668 131.731 75.8844 131.396 76.1197C131.064 76.3515 130.805 76.683 130.62 77.1144C130.435 77.5423 130.342 78.0485 130.342 78.6332C130.342 79.2322 130.433 79.7492 130.615 80.1841C130.797 80.6191 131.053 80.956 131.385 81.1949C131.72 81.4337 132.114 81.5532 132.567 81.5532C132.87 81.5532 133.144 81.4979 133.39 81.3874C133.64 81.2733 133.848 81.1111 134.016 80.9007C134.187 80.6904 134.307 80.4373 134.374 80.1413H135.931C135.873 80.6726 135.701 81.1467 135.412 81.5639C135.123 81.981 134.736 82.309 134.251 82.5479C133.77 82.7868 133.205 82.9062 132.556 82.9062ZM137.641 82.7404V74.526H139.24V82.7404H137.641ZM138.448 73.2586C138.17 73.2586 137.931 73.1659 137.731 72.9805C137.535 72.7915 137.437 72.5669 137.437 72.3067C137.437 72.0428 137.535 71.8182 137.731 71.6328C137.931 71.4439 138.17 71.3494 138.448 71.3494C138.726 71.3494 138.963 71.4439 139.159 71.6328C139.359 71.8182 139.459 72.0428 139.459 72.3067C139.459 72.5669 139.359 72.7915 139.159 72.9805C138.963 73.1659 138.726 73.2586 138.448 73.2586ZM144.466 82.9009C143.803 82.9009 143.211 82.7315 142.69 82.3928C142.173 82.0505 141.767 81.5639 141.471 80.9328C141.179 80.2982 141.032 79.537 141.032 78.6493C141.032 77.7615 141.18 77.0021 141.476 76.3711C141.776 75.74 142.186 75.2569 142.706 74.9218C143.227 74.5867 143.817 74.4191 144.476 74.4191C144.986 74.4191 145.396 74.5047 145.706 74.6758C146.02 74.8434 146.263 75.0394 146.434 75.2641C146.608 75.4887 146.744 75.6865 146.84 75.8577H146.936V71.7879H148.536V82.7404H146.974V81.4623H146.84C146.744 81.637 146.605 81.8366 146.423 82.0612C146.245 82.2858 145.999 82.4819 145.685 82.6495C145.371 82.8171 144.965 82.9009 144.466 82.9009ZM144.819 81.5371C145.279 81.5371 145.667 81.4159 145.985 81.1735C146.305 80.9275 146.548 80.587 146.712 80.152C146.879 79.7171 146.963 79.2108 146.963 78.6332C146.963 78.0628 146.881 77.5637 146.717 77.1358C146.553 76.708 146.313 76.3746 145.995 76.1358C145.678 75.8969 145.286 75.7775 144.819 75.7775C144.337 75.7775 143.936 75.9022 143.615 76.1518C143.295 76.4014 143.052 76.7419 142.888 77.1733C142.728 77.6047 142.647 78.0913 142.647 78.6332C142.647 79.1823 142.729 79.6761 142.893 80.1146C143.057 80.5531 143.3 80.9007 143.621 81.1574C143.945 81.4106 144.345 81.5371 144.819 81.5371ZM154.278 82.9062C153.508 82.9062 152.836 82.7297 152.262 82.3768C151.688 82.0238 151.242 81.53 150.925 80.8954C150.607 80.2608 150.449 79.5192 150.449 78.6707C150.449 77.8186 150.607 77.0734 150.925 76.4352C151.242 75.7971 151.688 75.3015 152.262 74.9485C152.836 74.5956 153.508 74.4191 154.278 74.4191C155.048 74.4191 155.72 74.5956 156.294 74.9485C156.868 75.3015 157.314 75.7971 157.631 76.4352C157.948 77.0734 158.107 77.8186 158.107 78.6707C158.107 79.5192 157.948 80.2608 157.631 80.8954C157.314 81.53 156.868 82.0238 156.294 82.3768C155.72 82.7297 155.048 82.9062 154.278 82.9062ZM154.283 81.5639C154.782 81.5639 155.196 81.432 155.524 81.1681C155.852 80.9043 156.094 80.5531 156.251 80.1146C156.412 79.6761 156.492 79.193 156.492 78.6653C156.492 78.1412 156.412 77.6599 156.251 77.2214C156.094 76.7793 155.852 76.4246 155.524 76.1572C155.196 75.8898 154.782 75.7561 154.283 75.7561C153.78 75.7561 153.363 75.8898 153.032 76.1572C152.704 76.4246 152.46 76.7793 152.299 77.2214C152.142 77.6599 152.064 78.1412 152.064 78.6653C152.064 79.193 152.142 79.6761 152.299 80.1146C152.46 80.5531 152.704 80.9043 153.032 81.1681C153.363 81.432 153.78 81.5639 154.283 81.5639Z" fill="#98A2B3"/>
<path d="M38.9989 125.81C38.9989 126.979 38.785 127.984 38.3572 128.826C37.9293 129.664 37.3429 130.309 36.5977 130.762C35.8561 131.211 35.013 131.436 34.0682 131.436C33.1198 131.436 32.2731 131.211 31.5279 130.762C30.7863 130.309 30.2016 129.662 29.7738 128.82C29.346 127.979 29.1321 126.975 29.1321 125.81C29.1321 124.64 29.346 123.636 29.7738 122.799C30.2016 121.957 30.7863 121.312 31.5279 120.863C32.2731 120.41 33.1198 120.184 34.0682 120.184C35.013 120.184 35.8561 120.41 36.5977 120.863C37.3429 121.312 37.9293 121.957 38.3572 122.799C38.785 123.636 38.9989 124.64 38.9989 125.81ZM37.3625 125.81C37.3625 124.918 37.2181 124.168 36.9293 123.558C36.6441 122.945 36.2519 122.481 35.7527 122.168C35.2572 121.85 34.6956 121.692 34.0682 121.692C33.4371 121.692 32.8738 121.85 32.3782 122.168C31.8827 122.481 31.4905 122.945 31.2017 123.558C30.9165 124.168 30.7739 124.918 30.7739 125.81C30.7739 126.701 30.9165 127.453 31.2017 128.066C31.4905 128.676 31.8827 129.139 32.3782 129.457C32.8738 129.771 33.4371 129.927 34.0682 129.927C34.6956 129.927 35.2572 129.771 35.7527 129.457C36.2519 129.139 36.6441 128.676 36.9293 128.066C37.2181 127.453 37.3625 126.701 37.3625 125.81ZM46.1344 127.879V123.071H47.7387V131.286H46.1664V129.863H46.0809C45.8919 130.302 45.5889 130.667 45.1717 130.96C44.7582 131.248 44.243 131.393 43.6262 131.393C43.0985 131.393 42.6315 131.277 42.225 131.045C41.8222 130.81 41.5049 130.462 41.2731 130.002C41.0449 129.542 40.9309 128.974 40.9309 128.296V123.071H42.5299V128.104C42.5299 128.664 42.685 129.109 42.9951 129.441C43.3053 129.772 43.7082 129.938 44.2038 129.938C44.5032 129.938 44.8009 129.863 45.0969 129.713C45.3963 129.564 45.6441 129.337 45.8402 129.034C46.0399 128.731 46.1379 128.346 46.1344 127.879ZM53.7217 123.071V124.355H49.2348V123.071H53.7217ZM50.4381 121.103H52.0371V128.874C52.0371 129.184 52.0834 129.418 52.1761 129.574C52.2688 129.728 52.3883 129.833 52.5344 129.89C52.6842 129.943 52.8464 129.97 53.0211 129.97C53.1495 129.97 53.2618 129.961 53.358 129.943C53.4543 129.926 53.5292 129.911 53.5826 129.901L53.8714 131.222C53.7787 131.257 53.6468 131.293 53.4757 131.329C53.3045 131.368 53.0906 131.389 52.8339 131.393C52.4132 131.4 52.0211 131.325 51.6574 131.168C51.2937 131.011 50.9996 130.769 50.775 130.441C50.5504 130.113 50.4381 129.701 50.4381 129.205V121.103ZM55.4905 131.286V123.071H57.036V124.376H57.1216C57.2714 123.934 57.5352 123.587 57.9131 123.333C58.2946 123.077 58.726 122.948 59.2073 122.948C59.3071 122.948 59.4248 122.952 59.5603 122.959C59.6993 122.966 59.808 122.975 59.8865 122.986V124.515C59.8223 124.498 59.7082 124.478 59.5442 124.457C59.3802 124.432 59.2162 124.419 59.0522 124.419C58.6743 124.419 58.3374 124.499 58.0414 124.66C57.7491 124.817 57.5174 125.036 57.3462 125.318C57.1751 125.596 57.0895 125.913 57.0895 126.269V131.286H55.4905ZM64.4362 131.452C63.6661 131.452 62.994 131.275 62.42 130.922C61.846 130.569 61.4004 130.075 61.0831 129.441C60.7658 128.806 60.6071 128.065 60.6071 127.216C60.6071 126.364 60.7658 125.619 61.0831 124.981C61.4004 124.342 61.846 123.847 62.42 123.494C62.994 123.141 63.6661 122.964 64.4362 122.964C65.2063 122.964 65.8783 123.141 66.4524 123.494C67.0264 123.847 67.472 124.342 67.7893 124.981C68.1066 125.619 68.2653 126.364 68.2653 127.216C68.2653 128.065 68.1066 128.806 67.7893 129.441C67.472 130.075 67.0264 130.569 66.4524 130.922C65.8783 131.275 65.2063 131.452 64.4362 131.452ZM64.4415 130.109C64.9407 130.109 65.3543 129.977 65.6823 129.713C66.0103 129.45 66.2527 129.098 66.4096 128.66C66.57 128.221 66.6502 127.738 66.6502 127.211C66.6502 126.687 66.57 126.205 66.4096 125.767C66.2527 125.325 66.0103 124.97 65.6823 124.703C65.3543 124.435 64.9407 124.301 64.4415 124.301C63.9388 124.301 63.5217 124.435 63.1901 124.703C62.8621 124.97 62.6179 125.325 62.4575 125.767C62.3006 126.205 62.2222 126.687 62.2222 127.211C62.2222 127.738 62.3006 128.221 62.4575 128.66C62.6179 129.098 62.8621 129.45 63.1901 129.713C63.5217 129.977 63.9388 130.109 64.4415 130.109Z" fill="#98A2B3"/>
<path d="M31.1375 143.624V154.577H29.485V143.624H31.1375ZM36.4908 154.737C35.8276 154.737 35.2358 154.568 34.7153 154.229C34.1983 153.887 33.7919 153.4 33.4959 152.769C33.2036 152.134 33.0574 151.373 33.0574 150.486C33.0574 149.598 33.2054 148.838 33.5013 148.207C33.8008 147.576 34.2108 147.093 34.7313 146.758C35.2518 146.423 35.8419 146.255 36.5015 146.255C37.0113 146.255 37.4213 146.341 37.7315 146.512C38.0452 146.68 38.2877 146.876 38.4588 147.1C38.6335 147.325 38.769 147.523 38.8652 147.694H38.9615V143.624H40.5605V154.577H38.9989V153.299H38.8652C38.769 153.473 38.6299 153.673 38.4481 153.897C38.2698 154.122 38.0238 154.318 37.7101 154.486C37.3963 154.653 36.9899 154.737 36.4908 154.737ZM36.8437 153.373C37.3036 153.373 37.6923 153.252 38.0096 153.01C38.3304 152.764 38.5729 152.423 38.7369 151.988C38.9044 151.553 38.9882 151.047 38.9882 150.469C38.9882 149.899 38.9062 149.4 38.7422 148.972C38.5782 148.544 38.3376 148.211 38.0203 147.972C37.7029 147.733 37.3108 147.614 36.8437 147.614C36.3624 147.614 35.9613 147.738 35.6404 147.988C35.3196 148.238 35.0771 148.578 34.9131 149.009C34.7527 149.441 34.6725 149.928 34.6725 150.469C34.6725 151.019 34.7545 151.512 34.9185 151.951C35.0825 152.389 35.3249 152.737 35.6458 152.994C35.9702 153.247 36.3695 153.373 36.8437 153.373ZM46.383 154.742C45.5737 154.742 44.8767 154.57 44.292 154.224C43.7109 153.874 43.2616 153.384 42.9443 152.753C42.6306 152.118 42.4737 151.375 42.4737 150.523C42.4737 149.682 42.6306 148.94 42.9443 148.298C43.2616 147.656 43.7037 147.156 44.2706 146.795C44.8411 146.435 45.5078 146.255 46.2707 146.255C46.7342 146.255 47.1834 146.332 47.6184 146.485C48.0534 146.639 48.4438 146.879 48.7896 147.207C49.1354 147.535 49.4082 147.961 49.6078 148.485C49.8075 149.006 49.9073 149.639 49.9073 150.384V150.951H43.3775V149.753H48.3404C48.3404 149.332 48.2548 148.96 48.0837 148.635C47.9125 148.307 47.6719 148.049 47.3617 147.86C47.0551 147.671 46.695 147.576 46.2814 147.576C45.8322 147.576 45.44 147.687 45.1049 147.908C44.7733 148.125 44.5166 148.411 44.3348 148.763C44.1565 149.113 44.0674 149.493 44.0674 149.903V150.838C44.0674 151.388 44.1637 151.855 44.3562 152.24C44.5523 152.625 44.825 152.919 45.1744 153.122C45.5238 153.322 45.932 153.422 46.3991 153.422C46.7021 153.422 46.9784 153.379 47.228 153.293C47.4776 153.204 47.6933 153.072 47.8751 152.897C48.0569 152.723 48.196 152.507 48.2922 152.25L49.8057 152.523C49.6845 152.969 49.467 153.359 49.1532 153.694C48.8431 154.026 48.4527 154.284 47.9821 154.47C47.515 154.652 46.982 154.742 46.383 154.742ZM54.072 154.758C53.5514 154.758 53.0808 154.662 52.6601 154.47C52.2394 154.274 51.9061 153.99 51.6601 153.619C51.4176 153.249 51.2964 152.794 51.2964 152.256C51.2964 151.792 51.3855 151.411 51.5638 151.111C51.7421 150.812 51.9827 150.575 52.2858 150.4C52.5888 150.225 52.9275 150.093 53.3019 150.004C53.6762 149.915 54.0577 149.847 54.4463 149.801C54.9383 149.744 55.3376 149.698 55.6443 149.662C55.9509 149.623 56.1737 149.56 56.3127 149.475C56.4518 149.389 56.5213 149.25 56.5213 149.058V149.02C56.5213 148.553 56.3894 148.191 56.1256 147.935C55.8653 147.678 55.4767 147.55 54.9597 147.55C54.4214 147.55 53.9971 147.669 53.6869 147.908C53.3803 148.143 53.1682 148.405 53.0505 148.694L51.5478 148.352C51.726 147.853 51.9863 147.45 52.3286 147.143C52.6744 146.833 53.0719 146.608 53.5211 146.469C53.9704 146.327 54.4428 146.255 54.9383 146.255C55.2663 146.255 55.6139 146.295 55.9812 146.373C56.352 146.448 56.6978 146.587 57.0187 146.79C57.3431 146.993 57.6087 147.284 57.8155 147.662C58.0223 148.036 58.1257 148.523 58.1257 149.122V154.577H56.5641V153.454H56.4999C56.3965 153.66 56.2414 153.864 56.0346 154.063C55.8279 154.263 55.5623 154.429 55.2378 154.561C54.9134 154.693 54.5248 154.758 54.072 154.758ZM54.4196 153.475C54.8617 153.475 55.2396 153.388 55.5533 153.213C55.8706 153.038 56.1113 152.81 56.2753 152.528C56.4429 152.243 56.5267 151.938 56.5267 151.614V150.555C56.4696 150.612 56.3591 150.666 56.1951 150.715C56.0346 150.762 55.851 150.803 55.6443 150.838C55.4375 150.871 55.236 150.901 55.0399 150.929C54.8439 150.954 54.6798 150.976 54.5479 150.994C54.2378 151.033 53.9543 151.099 53.6976 151.191C53.4445 151.284 53.2413 151.418 53.088 151.593C52.9382 151.764 52.8633 151.992 52.8633 152.277C52.8633 152.673 53.0095 152.972 53.3019 153.176C53.5942 153.375 53.9668 153.475 54.4196 153.475ZM63.7156 154.742C62.9205 154.742 62.236 154.562 61.662 154.202C61.0915 153.839 60.653 153.338 60.3464 152.7C60.0398 152.061 59.8865 151.33 59.8865 150.507C59.8865 149.673 60.0433 148.936 60.3571 148.298C60.6708 147.656 61.1129 147.156 61.6834 146.795C62.2538 146.435 62.9259 146.255 63.6995 146.255C64.3234 146.255 64.8796 146.371 65.3681 146.603C65.8565 146.831 66.2505 147.152 66.55 147.566C66.853 147.979 67.033 148.462 67.0901 149.015H65.5339C65.4483 148.63 65.2522 148.298 64.9456 148.02C64.6425 147.742 64.2361 147.603 63.7263 147.603C63.2806 147.603 62.8902 147.721 62.5551 147.956C62.2235 148.188 61.965 148.519 61.7796 148.951C61.5942 149.379 61.5015 149.885 61.5015 150.469C61.5015 151.068 61.5925 151.585 61.7743 152.02C61.9561 152.455 62.2128 152.792 62.5444 153.031C62.8795 153.27 63.2735 153.389 63.7263 153.389C64.0293 153.389 64.3038 153.334 64.5498 153.224C64.7994 153.11 65.008 152.947 65.1755 152.737C65.3467 152.527 65.4661 152.273 65.5339 151.978H67.0901C67.033 152.509 66.8601 152.983 66.5713 153.4C66.2826 153.817 65.8957 154.145 65.4108 154.384C64.9295 154.623 64.3644 154.742 63.7156 154.742ZM63.138 154.534H64.1862L64.1006 154.972C64.4108 155.022 64.6818 155.147 64.9135 155.347C65.1452 155.546 65.2611 155.848 65.2611 156.251C65.2647 156.732 65.0561 157.122 64.6354 157.422C64.2183 157.721 63.614 157.871 62.8225 157.871L62.7904 156.978C63.1612 156.978 63.4606 156.924 63.6888 156.817C63.9206 156.71 64.0382 156.538 64.0418 156.299C64.0454 156.06 63.9562 155.892 63.7744 155.796C63.5961 155.7 63.3109 155.632 62.9187 155.593L63.138 154.534ZM71.1906 154.758C70.6701 154.758 70.1994 154.662 69.7787 154.47C69.358 154.274 69.0247 153.99 68.7787 153.619C68.5362 153.249 68.415 152.794 68.415 152.256C68.415 151.792 68.5042 151.411 68.6824 151.111C68.8607 150.812 69.1013 150.575 69.4044 150.4C69.7074 150.225 70.0461 150.093 70.4205 150.004C70.7948 149.915 71.1763 149.847 71.5649 149.801C72.0569 149.744 72.4563 149.698 72.7629 149.662C73.0695 149.623 73.2923 149.56 73.4314 149.475C73.5704 149.389 73.6399 149.25 73.6399 149.058V149.02C73.6399 148.553 73.508 148.191 73.2442 147.935C72.9839 147.678 72.5953 147.55 72.0783 147.55C71.54 147.55 71.1157 147.669 70.8055 147.908C70.4989 148.143 70.2868 148.405 70.1691 148.694L68.6664 148.352C68.8446 147.853 69.1049 147.45 69.4472 147.143C69.793 146.833 70.1905 146.608 70.6398 146.469C71.089 146.327 71.5614 146.255 72.0569 146.255C72.385 146.255 72.7326 146.295 73.0998 146.373C73.4706 146.448 73.8164 146.587 74.1373 146.79C74.4617 146.993 74.7273 147.284 74.9341 147.662C75.1409 148.036 75.2443 148.523 75.2443 149.122V154.577H73.6827V153.454H73.6185C73.5151 153.66 73.3601 153.864 73.1533 154.063C72.9465 154.263 72.6809 154.429 72.3564 154.561C72.032 154.693 71.6434 154.758 71.1906 154.758ZM71.5382 153.475C71.9803 153.475 72.3582 153.388 72.672 153.213C72.9893 153.038 73.2299 152.81 73.3939 152.528C73.5615 152.243 73.6453 151.938 73.6453 151.614V150.555C73.5882 150.612 73.4777 150.666 73.3137 150.715C73.1533 150.762 72.9697 150.803 72.7629 150.838C72.5561 150.871 72.3546 150.901 72.1586 150.929C71.9625 150.954 71.7985 150.976 71.6666 150.994C71.3564 151.033 71.0729 151.099 70.8162 151.191C70.5631 151.284 70.3599 151.418 70.2066 151.593C70.0568 151.764 69.982 151.992 69.982 152.277C69.982 152.673 70.1281 152.972 70.4205 153.176C70.7128 153.375 71.0854 153.475 71.5382 153.475ZM70.5328 145.368L69.4579 145.335C69.4579 144.744 69.6165 144.271 69.9338 143.918C70.2547 143.565 70.6505 143.389 71.1211 143.389C71.3385 143.389 71.5293 143.426 71.6933 143.501C71.8573 143.572 72.0106 143.656 72.1532 143.753C72.2994 143.845 72.4438 143.929 72.5864 144.004C72.7326 144.075 72.8948 144.111 73.073 144.111C73.2798 144.111 73.4474 144.032 73.5758 143.876C73.7077 143.719 73.7736 143.524 73.7736 143.293L74.8272 143.362C74.8272 143.958 74.6667 144.426 74.3458 144.769C74.025 145.107 73.631 145.278 73.164 145.282C72.9108 145.282 72.7005 145.246 72.5329 145.175C72.3689 145.1 72.2227 145.016 72.0944 144.924C71.966 144.827 71.8341 144.742 71.6986 144.667C71.5632 144.592 71.4009 144.555 71.212 144.555C71.0123 144.555 70.8483 144.633 70.72 144.79C70.5952 144.943 70.5328 145.136 70.5328 145.368ZM80.8342 154.742C80.0641 154.742 79.392 154.566 78.818 154.213C78.244 153.86 77.7984 153.366 77.4811 152.732C77.1637 152.097 77.0051 151.355 77.0051 150.507C77.0051 149.655 77.1637 148.91 77.4811 148.271C77.7984 147.633 78.244 147.138 78.818 146.785C79.392 146.432 80.0641 146.255 80.8342 146.255C81.6043 146.255 82.2763 146.432 82.8503 146.785C83.4243 147.138 83.87 147.633 84.1873 148.271C84.5046 148.91 84.6633 149.655 84.6633 150.507C84.6633 151.355 84.5046 152.097 84.1873 152.732C83.87 153.366 83.4243 153.86 82.8503 154.213C82.2763 154.566 81.6043 154.742 80.8342 154.742ZM80.8395 153.4C81.3387 153.4 81.7522 153.268 82.0802 153.004C82.4082 152.741 82.6507 152.389 82.8076 151.951C82.968 151.512 83.0482 151.029 83.0482 150.502C83.0482 149.977 82.968 149.496 82.8076 149.058C82.6507 148.616 82.4082 148.261 82.0802 147.993C81.7522 147.726 81.3387 147.592 80.8395 147.592C80.3368 147.592 79.9197 147.726 79.5881 147.993C79.2601 148.261 79.0159 148.616 78.8555 149.058C78.6986 149.496 78.6202 149.977 78.6202 150.502C78.6202 151.029 78.6986 151.512 78.8555 151.951C79.0159 152.389 79.2601 152.741 79.5881 153.004C79.9197 153.268 80.3368 153.4 80.8395 153.4Z" fill="#98A2B3"/>
<path d="M29.3353 177.867V176.67L33.0414 172.83C33.4371 172.413 33.7633 172.047 34.02 171.733C34.2803 171.416 34.4746 171.115 34.603 170.83C34.7313 170.544 34.7955 170.241 34.7955 169.92C34.7955 169.557 34.7099 169.243 34.5388 168.979C34.3676 168.712 34.1341 168.507 33.8382 168.364C33.5423 168.218 33.2089 168.145 32.8381 168.145C32.446 168.145 32.1037 168.225 31.8114 168.386C31.519 168.546 31.2944 168.772 31.1375 169.065C30.9806 169.357 30.9022 169.699 30.9022 170.092H29.3246C29.3246 169.425 29.4779 168.842 29.7845 168.343C30.0911 167.844 30.5118 167.457 31.0466 167.182C31.5814 166.904 32.1893 166.765 32.8702 166.765C33.5583 166.765 34.1644 166.902 34.6885 167.177C35.2162 167.448 35.628 167.819 35.9239 168.289C36.2198 168.756 36.3678 169.284 36.3678 169.872C36.3678 170.279 36.2911 170.676 36.1378 171.065C35.9881 171.454 35.726 171.887 35.3517 172.364C34.9773 172.839 34.4568 173.414 33.7901 174.092L31.6135 176.37V176.45H36.5442V177.867H29.3353ZM42.3841 178.049C41.5392 178.046 40.8172 177.823 40.2182 177.381C39.6193 176.939 39.1611 176.295 38.8438 175.45C38.5265 174.605 38.3679 173.587 38.3679 172.397C38.3679 171.209 38.5265 170.195 38.8438 169.354C39.1647 168.512 39.6246 167.87 40.2236 167.428C40.8261 166.986 41.5463 166.765 42.3841 166.765C43.222 166.765 43.9404 166.988 44.5393 167.434C45.1383 167.876 45.5964 168.518 45.9138 169.359C46.2346 170.197 46.3951 171.209 46.3951 172.397C46.3951 173.591 46.2364 174.611 45.9191 175.456C45.6018 176.297 45.1437 176.94 44.5447 177.386C43.9457 177.828 43.2255 178.049 42.3841 178.049ZM42.3841 176.621C43.1257 176.621 43.7051 176.259 44.1222 175.536C44.5429 174.812 44.7533 173.766 44.7533 172.397C44.7533 171.487 44.657 170.719 44.4645 170.092C44.2755 169.461 44.0028 168.983 43.6462 168.658C43.2933 168.33 42.8726 168.166 42.3841 168.166C41.6461 168.166 41.0668 168.53 40.6461 169.257C40.2254 169.985 40.0132 171.031 40.0097 172.397C40.0097 173.309 40.1042 174.081 40.2931 174.712C40.4856 175.34 40.7584 175.816 41.1113 176.14C41.4643 176.461 41.8886 176.621 42.3841 176.621ZM52.485 166.402L48.9554 179.515H47.5275L51.0571 166.402H52.485ZM57.9773 166.915V177.867H56.3194V168.573H56.2552L53.6348 170.284V168.701L56.3676 166.915H57.9773ZM60.94 177.867V176.67L64.6461 172.83C65.0418 172.413 65.3681 172.047 65.6248 171.733C65.885 171.416 66.0793 171.115 66.2077 170.83C66.336 170.544 66.4002 170.241 66.4002 169.92C66.4002 169.557 66.3146 169.243 66.1435 168.979C65.9724 168.712 65.7389 168.507 65.4429 168.364C65.147 168.218 64.8137 168.145 64.4429 168.145C64.0507 168.145 63.7084 168.225 63.4161 168.386C63.1237 168.546 62.8991 168.772 62.7422 169.065C62.5854 169.357 62.5069 169.699 62.5069 170.092H60.9293C60.9293 169.425 61.0826 168.842 61.3892 168.343C61.6958 167.844 62.1165 167.457 62.6513 167.182C63.1861 166.904 63.794 166.765 64.475 166.765C65.1631 166.765 65.7692 166.902 66.2933 167.177C66.8209 167.448 67.2327 167.819 67.5286 168.289C67.8245 168.756 67.9725 169.284 67.9725 169.872C67.9725 170.279 67.8958 170.676 67.7425 171.065C67.5928 171.454 67.3307 171.887 66.9564 172.364C66.582 172.839 66.0615 173.414 65.3948 174.092L63.2182 176.37V176.45H68.149V177.867H60.94ZM74.3686 166.402L70.839 179.515H69.4111L72.9407 166.402H74.3686ZM75.7056 177.867V176.67L79.4116 172.83C79.8074 172.413 80.1336 172.047 80.3903 171.733C80.6506 171.416 80.8449 171.115 80.9732 170.83C81.1016 170.544 81.1658 170.241 81.1658 169.92C81.1658 169.557 81.0802 169.243 80.9091 168.979C80.7379 168.712 80.5044 168.507 80.2085 168.364C79.9126 168.218 79.5792 168.145 79.2084 168.145C78.8162 168.145 78.474 168.225 78.1816 168.386C77.8893 168.546 77.6647 168.772 77.5078 169.065C77.3509 169.357 77.2725 169.699 77.2725 170.092H75.6949C75.6949 169.425 75.8482 168.842 76.1548 168.343C76.4614 167.844 76.8821 167.457 77.4169 167.182C77.9517 166.904 78.5595 166.765 79.2405 166.765C79.9286 166.765 80.5347 166.902 81.0588 167.177C81.5865 167.448 81.9982 167.819 82.2942 168.289C82.5901 168.756 82.738 169.284 82.738 169.872C82.738 170.279 82.6614 170.676 82.5081 171.065C82.3583 171.454 82.0963 171.887 81.7219 172.364C81.3476 172.839 80.8271 173.414 80.1603 174.092L77.9838 176.37V176.45H82.9145V177.867H75.7056ZM88.7544 178.049C87.9095 178.046 87.1875 177.823 86.5885 177.381C85.9896 176.939 85.5314 176.295 85.2141 175.45C84.8968 174.605 84.7381 173.587 84.7381 172.397C84.7381 171.209 84.8968 170.195 85.2141 169.354C85.535 168.512 85.9949 167.87 86.5939 167.428C87.1964 166.986 87.9166 166.765 88.7544 166.765C89.5923 166.765 90.3107 166.988 90.9096 167.434C91.5086 167.876 91.9667 168.518 92.284 169.359C92.6049 170.197 92.7653 171.209 92.7653 172.397C92.7653 173.591 92.6067 174.611 92.2894 175.456C91.9721 176.297 91.5139 176.94 90.915 177.386C90.316 177.828 89.5958 178.049 88.7544 178.049ZM88.7544 176.621C89.496 176.621 90.0753 176.259 90.4925 175.536C90.9132 174.812 91.1235 173.766 91.1235 172.397C91.1235 171.487 91.0273 170.719 90.8348 170.092C90.6458 169.461 90.373 168.983 90.0165 168.658C89.6636 168.33 89.2429 168.166 88.7544 168.166C88.0164 168.166 87.4371 168.53 87.0164 169.257C86.5957 169.985 86.3835 171.031 86.38 172.397C86.38 173.309 86.4744 174.081 86.6634 174.712C86.8559 175.34 87.1287 175.816 87.4816 176.14C87.8346 176.461 88.2588 176.621 88.7544 176.621ZM94.6625 177.867V176.67L98.3686 172.83C98.7643 172.413 99.0906 172.047 99.3473 171.733C99.6075 171.416 99.8018 171.115 99.9302 170.83C100.059 170.544 100.123 170.241 100.123 169.92C100.123 169.557 100.037 169.243 99.866 168.979C99.6949 168.712 99.4614 168.507 99.1654 168.364C98.8695 168.218 98.5362 168.145 98.1654 168.145C97.7732 168.145 97.4309 168.225 97.1386 168.386C96.8462 168.546 96.6216 168.772 96.4647 169.065C96.3079 169.357 96.2294 169.699 96.2294 170.092H94.6518C94.6518 169.425 94.8051 168.842 95.1117 168.343C95.4183 167.844 95.839 167.457 96.3738 167.182C96.9086 166.904 97.5165 166.765 98.1975 166.765C98.8856 166.765 99.4917 166.902 100.016 167.177C100.543 167.448 100.955 167.819 101.251 168.289C101.547 168.756 101.695 169.284 101.695 169.872C101.695 170.279 101.618 170.676 101.465 171.065C101.315 171.454 101.053 171.887 100.679 172.364C100.305 172.839 99.784 173.414 99.1173 174.092L96.9407 176.37V176.45H101.871V177.867H94.6625ZM107.514 178.017C106.843 178.017 106.241 177.889 105.706 177.632C105.175 177.372 104.75 177.015 104.433 176.563C104.116 176.11 103.946 175.593 103.925 175.012H105.529C105.569 175.482 105.777 175.869 106.155 176.172C106.533 176.475 106.986 176.627 107.514 176.627C107.934 176.627 108.307 176.53 108.631 176.338C108.959 176.142 109.216 175.873 109.401 175.53C109.59 175.188 109.685 174.798 109.685 174.359C109.685 173.914 109.588 173.516 109.396 173.167C109.203 172.817 108.938 172.543 108.599 172.343C108.264 172.143 107.879 172.042 107.444 172.038C107.112 172.038 106.779 172.095 106.444 172.209C106.109 172.323 105.838 172.473 105.631 172.659L104.118 172.434L104.733 166.915H110.754V168.332H106.107L105.759 171.396H105.824C106.037 171.19 106.321 171.017 106.674 170.878C107.03 170.739 107.412 170.669 107.818 170.669C108.485 170.669 109.079 170.828 109.599 171.145C110.123 171.462 110.535 171.896 110.835 172.445C111.138 172.99 111.287 173.618 111.284 174.327C111.287 175.037 111.127 175.669 110.802 176.226C110.482 176.782 110.036 177.22 109.465 177.541C108.899 177.859 108.248 178.017 107.514 178.017ZM122.084 171.696V173.086H117.228V171.696H122.084ZM128.179 177.867V176.67L131.885 172.83C132.281 172.413 132.607 172.047 132.864 171.733C133.124 171.416 133.318 171.115 133.447 170.83C133.575 170.544 133.639 170.241 133.639 169.92C133.639 169.557 133.554 169.243 133.383 168.979C133.211 168.712 132.978 168.507 132.682 168.364C132.386 168.218 132.053 168.145 131.682 168.145C131.29 168.145 130.948 168.225 130.655 168.386C130.363 168.546 130.138 168.772 129.981 169.065C129.824 169.357 129.746 169.699 129.746 170.092H128.168C128.168 169.425 128.322 168.842 128.628 168.343C128.935 167.844 129.356 167.457 129.89 167.182C130.425 166.904 131.033 166.765 131.714 166.765C132.402 166.765 133.008 166.902 133.532 167.177C134.06 167.448 134.472 167.819 134.768 168.289C135.064 168.756 135.212 169.284 135.212 169.872C135.212 170.279 135.135 170.676 134.982 171.065C134.832 171.454 134.57 171.887 134.195 172.364C133.821 172.839 133.301 173.414 132.634 174.092L130.457 176.37V176.45H135.388V177.867H128.179ZM141.228 178.049C140.383 178.046 139.661 177.823 139.062 177.381C138.463 176.939 138.005 176.295 137.688 175.45C137.37 174.605 137.212 173.587 137.212 172.397C137.212 171.209 137.37 170.195 137.688 169.354C138.009 168.512 138.468 167.87 139.067 167.428C139.67 166.986 140.39 166.765 141.228 166.765C142.066 166.765 142.784 166.988 143.383 167.434C143.982 167.876 144.44 168.518 144.758 169.359C145.078 170.197 145.239 171.209 145.239 172.397C145.239 173.591 145.08 174.611 144.763 175.456C144.446 176.297 143.987 176.94 143.389 177.386C142.79 177.828 142.069 178.049 141.228 178.049ZM141.228 176.621C141.97 176.621 142.549 176.259 142.966 175.536C143.387 174.812 143.597 173.766 143.597 172.397C143.597 171.487 143.501 170.719 143.308 170.092C143.119 169.461 142.847 168.983 142.49 168.658C142.137 168.33 141.716 168.166 141.228 168.166C140.49 168.166 139.911 168.53 139.49 169.257C139.069 169.985 138.857 171.031 138.854 172.397C138.854 173.309 138.948 174.081 139.137 174.712C139.329 175.34 139.602 175.816 139.955 176.14C140.308 176.461 140.732 176.621 141.228 176.621ZM151.329 166.402L147.799 179.515H146.371L149.901 166.402H151.329ZM156.821 166.915V177.867H155.163V168.573H155.099L152.479 170.284V168.701L155.211 166.915H156.821ZM159.784 177.867V176.67L163.49 172.83C163.886 172.413 164.212 172.047 164.469 171.733C164.729 171.416 164.923 171.115 165.052 170.83C165.18 170.544 165.244 170.241 165.244 169.92C165.244 169.557 165.158 169.243 164.987 168.979C164.816 168.712 164.583 168.507 164.287 168.364C163.991 168.218 163.658 168.145 163.287 168.145C162.895 168.145 162.552 168.225 162.26 168.386C161.968 168.546 161.743 168.772 161.586 169.065C161.429 169.357 161.351 169.699 161.351 170.092H159.773C159.773 169.425 159.926 168.842 160.233 168.343C160.54 167.844 160.96 167.457 161.495 167.182C162.03 166.904 162.638 166.765 163.319 166.765C164.007 166.765 164.613 166.902 165.137 167.177C165.665 167.448 166.077 167.819 166.372 168.289C166.668 168.756 166.816 169.284 166.816 169.872C166.816 170.279 166.74 170.676 166.586 171.065C166.437 171.454 166.175 171.887 165.8 172.364C165.426 172.839 164.905 173.414 164.239 174.092L162.062 176.37V176.45H166.993V177.867H159.784ZM173.212 166.402L169.683 179.515H168.255L171.785 166.402H173.212ZM174.549 177.867V176.67L178.255 172.83C178.651 172.413 178.977 172.047 179.234 171.733C179.494 171.416 179.689 171.115 179.817 170.83C179.945 170.544 180.01 170.241 180.01 169.92C180.01 169.557 179.924 169.243 179.753 168.979C179.582 168.712 179.348 168.507 179.052 168.364C178.756 168.218 178.423 168.145 178.052 168.145C177.66 168.145 177.318 168.225 177.025 168.386C176.733 168.546 176.508 168.772 176.352 169.065C176.195 169.357 176.116 169.699 176.116 170.092H174.539C174.539 169.425 174.692 168.842 174.999 168.343C175.305 167.844 175.726 167.457 176.261 167.182C176.796 166.904 177.403 166.765 178.084 166.765C178.772 166.765 179.379 166.902 179.903 167.177C180.43 167.448 180.842 167.819 181.138 168.289C181.434 168.756 181.582 169.284 181.582 169.872C181.582 170.279 181.505 170.676 181.352 171.065C181.202 171.454 180.94 171.887 180.566 172.364C180.191 172.839 179.671 173.414 179.004 174.092L176.828 176.37V176.45H181.758V177.867H174.549ZM187.598 178.049C186.753 178.046 186.031 177.823 185.432 177.381C184.833 176.939 184.375 176.295 184.058 175.45C183.741 174.605 183.582 173.587 183.582 172.397C183.582 171.209 183.741 170.195 184.058 169.354C184.379 168.512 184.839 167.87 185.438 167.428C186.04 166.986 186.76 166.765 187.598 166.765C188.436 166.765 189.154 166.988 189.753 167.434C190.352 167.876 190.811 168.518 191.128 169.359C191.449 170.197 191.609 171.209 191.609 172.397C191.609 173.591 191.451 174.611 191.133 175.456C190.816 176.297 190.358 176.94 189.759 177.386C189.16 177.828 188.44 178.049 187.598 178.049ZM187.598 176.621C188.34 176.621 188.919 176.259 189.336 175.536C189.757 174.812 189.967 173.766 189.967 172.397C189.967 171.487 189.871 170.719 189.679 170.092C189.49 169.461 189.217 168.983 188.86 168.658C188.507 168.33 188.087 168.166 187.598 168.166C186.86 168.166 186.281 168.53 185.86 169.257C185.439 169.985 185.227 171.031 185.224 172.397C185.224 173.309 185.318 174.081 185.507 174.712C185.7 175.34 185.972 175.816 186.325 176.14C186.678 176.461 187.103 176.621 187.598 176.621ZM193.506 177.867V176.67L197.212 172.83C197.608 172.413 197.934 172.047 198.191 171.733C198.451 171.416 198.646 171.115 198.774 170.83C198.902 170.544 198.967 170.241 198.967 169.92C198.967 169.557 198.881 169.243 198.71 168.979C198.539 168.712 198.305 168.507 198.009 168.364C197.713 168.218 197.38 168.145 197.009 168.145C196.617 168.145 196.275 168.225 195.982 168.386C195.69 168.546 195.465 168.772 195.309 169.065C195.152 169.357 195.073 169.699 195.073 170.092H193.496C193.496 169.425 193.649 168.842 193.956 168.343C194.262 167.844 194.683 167.457 195.218 167.182C195.752 166.904 196.36 166.765 197.041 166.765C197.729 166.765 198.335 166.902 198.86 167.177C199.387 167.448 199.799 167.819 200.095 168.289C200.391 168.756 200.539 169.284 200.539 169.872C200.539 170.279 200.462 170.676 200.309 171.065C200.159 171.454 199.897 171.887 199.523 172.364C199.148 172.839 198.628 173.414 197.961 174.092L195.785 176.37V176.45H200.715V177.867H193.506ZM206.357 178.017C205.687 178.017 205.085 177.889 204.55 177.632C204.019 177.372 203.594 177.015 203.277 176.563C202.96 176.11 202.79 175.593 202.769 175.012H204.373C204.412 175.482 204.621 175.869 204.999 176.172C205.377 176.475 205.83 176.627 206.357 176.627C206.778 176.627 207.151 176.53 207.475 176.338C207.803 176.142 208.06 175.873 208.245 175.53C208.434 175.188 208.529 174.798 208.529 174.359C208.529 173.914 208.432 173.516 208.24 173.167C208.047 172.817 207.782 172.543 207.443 172.343C207.108 172.143 206.723 172.042 206.288 172.038C205.956 172.038 205.623 172.095 205.288 172.209C204.953 172.323 204.682 172.473 204.475 172.659L202.961 172.434L203.576 166.915H209.598V168.332H204.951L204.603 171.396H204.667C204.881 171.19 205.165 171.017 205.518 170.878C205.874 170.739 206.256 170.669 206.662 170.669C207.329 170.669 207.922 170.828 208.443 171.145C208.967 171.462 209.379 171.896 209.678 172.445C209.981 172.99 210.131 173.618 210.128 174.327C210.131 175.037 209.971 175.669 209.646 176.226C209.325 176.782 208.88 177.22 208.309 177.541C207.742 177.859 207.092 178.017 206.357 178.017Z" fill="#98A2B3"/>
<path d="M29.485 201.158V190.206H33.389C34.2411 190.206 34.947 190.361 35.5067 190.671C36.0665 190.981 36.4854 191.405 36.7635 191.944C37.0416 192.479 37.1806 193.081 37.1806 193.751C37.1806 194.425 37.0398 195.031 36.7582 195.57C36.4801 196.104 36.0594 196.529 35.4961 196.842C34.9363 197.153 34.2322 197.308 33.3836 197.308H30.699V195.907H33.2339C33.7722 195.907 34.209 195.814 34.5441 195.628C34.8793 195.44 35.1253 195.183 35.2821 194.858C35.439 194.534 35.5174 194.165 35.5174 193.751C35.5174 193.338 35.439 192.971 35.2821 192.65C35.1253 192.329 34.8775 192.077 34.5388 191.896C34.2036 191.714 33.7615 191.623 33.2125 191.623H31.1375V201.158H29.485ZM44.1931 197.752V192.944H45.7974V201.158H44.2252V199.736H44.1396C43.9506 200.174 43.6476 200.54 43.2304 200.832C42.8169 201.121 42.3017 201.265 41.6849 201.265C41.1572 201.265 40.6902 201.149 40.2838 200.918C39.8809 200.682 39.5636 200.335 39.3318 199.875C39.1037 199.415 38.9896 198.846 38.9896 198.169V192.944H40.5886V197.976C40.5886 198.536 40.7437 198.982 41.0539 199.313C41.364 199.645 41.7669 199.811 42.2625 199.811C42.562 199.811 42.8597 199.736 43.1556 199.586C43.4551 199.436 43.7028 199.21 43.8989 198.907C44.0986 198.604 44.1966 198.219 44.1931 197.752ZM41.7437 191.848L42.9951 189.382H44.6797L43.0219 191.848H41.7437ZM48.0743 201.158V190.206H49.6733V194.275H49.7696C49.8623 194.104 49.996 193.906 50.1707 193.682C50.3454 193.457 50.5878 193.261 50.898 193.094C51.2082 192.922 51.6182 192.837 52.128 192.837C52.7912 192.837 53.383 193.004 53.9035 193.34C54.424 193.675 54.8323 194.158 55.1282 194.789C55.4277 195.42 55.5774 196.179 55.5774 197.067C55.5774 197.955 55.4294 198.716 55.1335 199.351C54.8376 199.982 54.4312 200.468 53.9142 200.811C53.3972 201.149 52.8072 201.319 52.1441 201.319C51.6449 201.319 51.2367 201.235 50.9194 201.067C50.6056 200.9 50.3596 200.704 50.1814 200.479C50.0031 200.254 49.8659 200.055 49.7696 199.88H49.6359V201.158H48.0743ZM49.6412 197.051C49.6412 197.629 49.725 198.135 49.8926 198.57C50.0602 199.005 50.3026 199.345 50.6199 199.591C50.9372 199.834 51.3258 199.955 51.7857 199.955C52.2635 199.955 52.6628 199.828 52.9837 199.575C53.3045 199.319 53.547 198.971 53.711 198.532C53.8786 198.094 53.9623 197.6 53.9623 197.051C53.9623 196.509 53.8803 196.022 53.7163 195.591C53.5559 195.16 53.3135 194.819 52.989 194.57C52.6681 194.32 52.2671 194.195 51.7857 194.195C51.3223 194.195 50.9301 194.315 50.6092 194.554C50.2919 194.792 50.0512 195.126 49.8872 195.554C49.7232 195.981 49.6412 196.481 49.6412 197.051ZM58.972 190.206V201.158H57.373V190.206H58.972ZM61.1232 201.158V192.944H62.7222V201.158H61.1232ZM61.9307 191.676C61.6526 191.676 61.4137 191.584 61.2141 191.398C61.018 191.209 60.92 190.985 60.92 190.724C60.92 190.461 61.018 190.236 61.2141 190.051C61.4137 189.862 61.6526 189.767 61.9307 189.767C62.2088 189.767 62.4459 189.862 62.642 190.051C62.8416 190.236 62.9415 190.461 62.9415 190.724C62.9415 190.985 62.8416 191.209 62.642 191.398C62.4459 191.584 62.2088 191.676 61.9307 191.676ZM68.3335 201.324C67.5384 201.324 66.8539 201.144 66.2799 200.784C65.7094 200.42 65.2709 199.919 64.9643 199.281C64.6577 198.643 64.5044 197.912 64.5044 197.088C64.5044 196.254 64.6613 195.518 64.975 194.88C65.2887 194.238 65.7308 193.737 66.3013 193.377C66.8717 193.017 67.5438 192.837 68.3174 192.837C68.9414 192.837 69.4975 192.953 69.986 193.184C70.4744 193.413 70.8684 193.734 71.1679 194.147C71.4709 194.561 71.651 195.044 71.708 195.596H70.1518C70.0662 195.211 69.8701 194.88 69.5635 194.602C69.2604 194.324 68.854 194.185 68.3442 194.185C67.8985 194.185 67.5081 194.302 67.173 194.538C66.8414 194.769 66.5829 195.101 66.3975 195.532C66.2121 195.96 66.1194 196.466 66.1194 197.051C66.1194 197.65 66.2104 198.167 66.3922 198.602C66.574 199.037 66.8307 199.374 67.1623 199.613C67.4974 199.852 67.8914 199.971 68.3442 199.971C68.6472 199.971 68.9217 199.916 69.1677 199.805C69.4173 199.691 69.6259 199.529 69.7935 199.319C69.9646 199.108 70.084 198.855 70.1518 198.559H71.708C71.651 199.09 71.478 199.565 71.1893 199.982C70.9005 200.399 70.5136 200.727 70.0288 200.966C69.5474 201.205 68.9824 201.324 68.3335 201.324ZM76.8781 201.324C76.108 201.324 75.4359 201.148 74.8619 200.795C74.2879 200.442 73.8423 199.948 73.5249 199.313C73.2076 198.679 73.049 197.937 73.049 197.088C73.049 196.236 73.2076 195.491 73.5249 194.853C73.8423 194.215 74.2879 193.719 74.8619 193.366C75.4359 193.013 76.108 192.837 76.8781 192.837C77.6482 192.837 78.3202 193.013 78.8942 193.366C79.4682 193.719 79.9139 194.215 80.2312 194.853C80.5485 195.491 80.7072 196.236 80.7072 197.088C80.7072 197.937 80.5485 198.679 80.2312 199.313C79.9139 199.948 79.4682 200.442 78.8942 200.795C78.3202 201.148 77.6482 201.324 76.8781 201.324ZM76.8834 199.982C77.3826 199.982 77.7961 199.85 78.1241 199.586C78.4521 199.322 78.6946 198.971 78.8515 198.532C79.0119 198.094 79.0921 197.611 79.0921 197.083C79.0921 196.559 79.0119 196.078 78.8515 195.639C78.6946 195.197 78.4521 194.842 78.1241 194.575C77.7961 194.308 77.3826 194.174 76.8834 194.174C76.3807 194.174 75.9636 194.308 75.632 194.575C75.304 194.842 75.0598 195.197 74.8994 195.639C74.7425 196.078 74.664 196.559 74.664 197.083C74.664 197.611 74.7425 198.094 74.8994 198.532C75.0598 198.971 75.304 199.322 75.632 199.586C75.9636 199.85 76.3807 199.982 76.8834 199.982Z" fill="#98A2B3"/>
<rect x="16.6357" y="223.758" width="211.281" height="43.2544" rx="15.8045" fill="#15358D"/>
<path d="M79.9403 243.117H77.598C77.5552 242.814 77.4678 242.545 77.3359 242.31C77.204 242.071 77.0346 241.868 76.8279 241.7C76.6211 241.533 76.3822 241.404 76.1112 241.315C75.8439 241.226 75.5533 241.181 75.2395 241.181C74.6727 241.181 74.1789 241.322 73.7582 241.604C73.3375 241.882 73.0112 242.288 72.7795 242.823C72.5478 243.354 72.4319 244 72.4319 244.759C72.4319 245.54 72.5478 246.196 72.7795 246.727C73.0148 247.258 73.3428 247.659 73.7635 247.93C74.1842 248.201 74.6709 248.337 75.2235 248.337C75.5337 248.337 75.8207 248.296 76.0845 248.214C76.3519 248.132 76.589 248.012 76.7958 247.856C77.0026 247.695 77.1737 247.501 77.3092 247.273C77.4482 247.044 77.5445 246.784 77.598 246.492L79.9403 246.503C79.8797 247.005 79.7282 247.49 79.4858 247.957C79.2469 248.421 78.9242 248.836 78.5178 249.203C78.1149 249.567 77.6336 249.856 77.0739 250.07C76.5177 250.28 75.8884 250.385 75.1861 250.385C74.2092 250.385 73.3357 250.164 72.5656 249.722C71.7991 249.28 71.193 248.64 70.7473 247.802C70.3052 246.964 70.0842 245.95 70.0842 244.759C70.0842 243.565 70.3088 242.549 70.758 241.711C71.2072 240.873 71.8169 240.235 72.587 239.796C73.3571 239.354 74.2234 239.133 75.1861 239.133C75.8207 239.133 76.4089 239.222 76.9509 239.401C77.4964 239.579 77.9794 239.839 78.4001 240.181C78.8208 240.52 79.1631 240.935 79.4269 241.427C79.6943 241.919 79.8655 242.483 79.9403 243.117ZM83.9005 250.39C83.3764 250.39 82.9093 250.3 82.4993 250.118C82.0893 249.932 81.7649 249.66 81.526 249.299C81.2907 248.936 81.173 248.483 81.173 247.941C81.173 247.485 81.2568 247.101 81.4244 246.791C81.5919 246.481 81.8201 246.232 82.1089 246.043C82.3977 245.854 82.7257 245.711 83.0929 245.615C83.4637 245.519 83.8523 245.451 84.2588 245.412C84.7365 245.362 85.1216 245.315 85.4139 245.273C85.7063 245.226 85.9184 245.158 86.0503 245.069C86.1822 244.98 86.2482 244.848 86.2482 244.674V244.641C86.2482 244.303 86.1412 244.041 85.9273 243.855C85.717 243.67 85.4175 243.577 85.0289 243.577C84.6189 243.577 84.2926 243.668 84.0502 243.85C83.8078 244.028 83.6473 244.253 83.5689 244.524L81.4618 244.353C81.5688 243.854 81.7791 243.422 82.0929 243.058C82.4066 242.691 82.8113 242.41 83.3068 242.214C83.806 242.014 84.3835 241.914 85.0396 241.914C85.4959 241.914 85.9327 241.968 86.3498 242.074C86.7705 242.181 87.1431 242.347 87.4675 242.572C87.7955 242.796 88.054 243.085 88.2429 243.438C88.4319 243.788 88.5264 244.206 88.5264 244.695V250.235H86.3658V249.096H86.3017C86.1697 249.353 85.9933 249.579 85.7722 249.775C85.5512 249.968 85.2856 250.119 84.9754 250.23C84.6652 250.337 84.3069 250.39 83.9005 250.39ZM84.5529 248.818C84.888 248.818 85.184 248.752 85.4407 248.62C85.6973 248.485 85.8988 248.303 86.045 248.075C86.1911 247.847 86.2642 247.588 86.2642 247.299V246.428C86.1929 246.474 86.0949 246.517 85.9701 246.556C85.8489 246.592 85.7116 246.626 85.5583 246.658C85.405 246.686 85.2517 246.713 85.0984 246.738C84.9451 246.759 84.806 246.779 84.6812 246.797C84.4139 246.836 84.1803 246.898 83.9807 246.984C83.781 247.069 83.6259 247.185 83.5154 247.331C83.4049 247.474 83.3496 247.652 83.3496 247.866C83.3496 248.176 83.4619 248.414 83.6865 248.578C83.9147 248.738 84.2035 248.818 84.5529 248.818ZM92.5721 245.486V250.235H90.2939V242.021H92.4651V243.47H92.5614C92.7432 242.993 93.048 242.615 93.4759 242.337C93.9037 242.055 94.4224 241.914 95.0321 241.914C95.6025 241.914 96.0999 242.039 96.5242 242.288C96.9484 242.538 97.2782 242.894 97.5135 243.358C97.7488 243.818 97.8665 244.367 97.8665 245.005V250.235H95.5883V245.412C95.5918 244.909 95.4635 244.517 95.2032 244.235C94.943 243.95 94.5847 243.807 94.1283 243.807C93.8217 243.807 93.5507 243.873 93.3154 244.005C93.0837 244.137 92.9019 244.329 92.7699 244.583C92.6416 244.832 92.5756 245.133 92.5721 245.486ZM102.689 250.369C102.065 250.369 101.5 250.209 100.994 249.888C100.491 249.563 100.092 249.087 99.7957 248.46C99.5034 247.829 99.3572 247.055 99.3572 246.139C99.3572 245.198 99.5087 244.415 99.8118 243.791C100.115 243.164 100.518 242.695 101.02 242.385C101.527 242.071 102.081 241.914 102.684 241.914C103.144 241.914 103.527 241.992 103.833 242.149C104.144 242.303 104.393 242.495 104.582 242.727C104.775 242.955 104.921 243.18 105.021 243.401H105.09V239.283H107.363V250.235H105.117V248.92H105.021C104.914 249.148 104.762 249.374 104.566 249.599C104.374 249.82 104.122 250.004 103.812 250.15C103.505 250.296 103.131 250.369 102.689 250.369ZM103.411 248.556C103.778 248.556 104.088 248.456 104.341 248.257C104.598 248.053 104.794 247.77 104.93 247.406C105.069 247.043 105.138 246.617 105.138 246.128C105.138 245.64 105.071 245.215 104.935 244.855C104.8 244.495 104.604 244.217 104.347 244.021C104.09 243.825 103.778 243.727 103.411 243.727C103.037 243.727 102.721 243.829 102.464 244.032C102.208 244.235 102.013 244.517 101.881 244.877C101.75 245.237 101.684 245.654 101.684 246.128C101.684 246.606 101.75 247.028 101.881 247.396C102.017 247.759 102.211 248.044 102.464 248.251C102.721 248.455 103.037 248.556 103.411 248.556ZM109.236 250.235V242.021H111.514V250.235H109.236ZM110.381 240.962C110.042 240.962 109.751 240.85 109.509 240.625C109.27 240.397 109.151 240.124 109.151 239.807C109.151 239.493 109.27 239.224 109.509 238.999C109.751 238.771 110.042 238.657 110.381 238.657C110.719 238.657 111.008 238.771 111.247 238.999C111.489 239.224 111.611 239.493 111.611 239.807C111.611 240.124 111.489 240.397 111.247 240.625C111.008 240.85 110.719 240.962 110.381 240.962ZM116.366 250.369C115.742 250.369 115.177 250.209 114.671 249.888C114.168 249.563 113.769 249.087 113.473 248.46C113.181 247.829 113.034 247.055 113.034 246.139C113.034 245.198 113.186 244.415 113.489 243.791C113.792 243.164 114.195 242.695 114.698 242.385C115.204 242.071 115.758 241.914 116.361 241.914C116.821 241.914 117.204 241.992 117.511 242.149C117.821 242.303 118.07 242.495 118.259 242.727C118.452 242.955 118.598 243.18 118.698 243.401H118.767V239.283H121.04V250.235H118.794V248.92H118.698C118.591 249.148 118.439 249.374 118.243 249.599C118.051 249.82 117.799 250.004 117.489 250.15C117.183 250.296 116.808 250.369 116.366 250.369ZM117.088 248.556C117.455 248.556 117.766 248.456 118.019 248.257C118.275 248.053 118.471 247.77 118.607 247.406C118.746 247.043 118.816 246.617 118.816 246.128C118.816 245.64 118.748 245.215 118.612 244.855C118.477 244.495 118.281 244.217 118.024 244.021C117.767 243.825 117.455 243.727 117.088 243.727C116.714 243.727 116.398 243.829 116.142 244.032C115.885 244.235 115.691 244.517 115.559 244.877C115.427 245.237 115.361 245.654 115.361 246.128C115.361 246.606 115.427 247.028 115.559 247.396C115.694 247.759 115.888 248.044 116.142 248.251C116.398 248.455 116.714 248.556 117.088 248.556ZM125.256 250.39C124.732 250.39 124.265 250.3 123.855 250.118C123.445 249.932 123.12 249.66 122.881 249.299C122.646 248.936 122.528 248.483 122.528 247.941C122.528 247.485 122.612 247.101 122.78 246.791C122.947 246.481 123.175 246.232 123.464 246.043C123.753 245.854 124.081 245.711 124.448 245.615C124.819 245.519 125.208 245.451 125.614 245.412C126.092 245.362 126.477 245.315 126.769 245.273C127.062 245.226 127.274 245.158 127.406 245.069C127.538 244.98 127.603 244.848 127.603 244.674V244.641C127.603 244.303 127.497 244.041 127.283 243.855C127.072 243.67 126.773 243.577 126.384 243.577C125.974 243.577 125.648 243.668 125.405 243.85C125.163 244.028 125.003 244.253 124.924 244.524L122.817 244.353C122.924 243.854 123.134 243.422 123.448 243.058C123.762 242.691 124.167 242.41 124.662 242.214C125.161 242.014 125.739 241.914 126.395 241.914C126.851 241.914 127.288 241.968 127.705 242.074C128.126 242.181 128.498 242.347 128.823 242.572C129.151 242.796 129.409 243.085 129.598 243.438C129.787 243.788 129.882 244.206 129.882 244.695V250.235H127.721V249.096H127.657C127.525 249.353 127.349 249.579 127.128 249.775C126.906 249.968 126.641 250.119 126.331 250.23C126.02 250.337 125.662 250.39 125.256 250.39ZM125.908 248.818C126.243 248.818 126.539 248.752 126.796 248.62C127.053 248.485 127.254 248.303 127.4 248.075C127.546 247.847 127.62 247.588 127.62 247.299V246.428C127.548 246.474 127.45 246.517 127.325 246.556C127.204 246.592 127.067 246.626 126.914 246.658C126.76 246.686 126.607 246.713 126.454 246.738C126.3 246.759 126.161 246.779 126.037 246.797C125.769 246.836 125.536 246.898 125.336 246.984C125.136 247.069 124.981 247.185 124.871 247.331C124.76 247.474 124.705 247.652 124.705 247.866C124.705 248.176 124.817 248.414 125.042 248.578C125.27 248.738 125.559 248.818 125.908 248.818ZM136.018 242.021V243.732H131.072V242.021H136.018ZM132.195 240.053H134.473V247.711C134.473 247.921 134.505 248.085 134.569 248.203C134.633 248.317 134.722 248.397 134.836 248.444C134.954 248.49 135.09 248.513 135.243 248.513C135.35 248.513 135.457 248.504 135.564 248.487C135.671 248.465 135.753 248.449 135.81 248.438L136.168 250.134C136.054 250.169 135.894 250.21 135.687 250.257C135.48 250.307 135.229 250.337 134.933 250.348C134.384 250.369 133.902 250.296 133.489 250.128C133.079 249.961 132.76 249.701 132.532 249.348C132.303 248.995 132.191 248.549 132.195 248.011V240.053ZM139.845 250.39C139.321 250.39 138.854 250.3 138.444 250.118C138.034 249.932 137.709 249.66 137.47 249.299C137.235 248.936 137.117 248.483 137.117 247.941C137.117 247.485 137.201 247.101 137.369 246.791C137.536 246.481 137.764 246.232 138.053 246.043C138.342 245.854 138.67 245.711 139.037 245.615C139.408 245.519 139.797 245.451 140.203 245.412C140.681 245.362 141.066 245.315 141.358 245.273C141.651 245.226 141.863 245.158 141.995 245.069C142.127 244.98 142.193 244.848 142.193 244.674V244.641C142.193 244.303 142.086 244.041 141.872 243.855C141.661 243.67 141.362 243.577 140.973 243.577C140.563 243.577 140.237 243.668 139.995 243.85C139.752 244.028 139.592 244.253 139.513 244.524L137.406 244.353C137.513 243.854 137.723 243.422 138.037 243.058C138.351 242.691 138.756 242.41 139.251 242.214C139.75 242.014 140.328 241.914 140.984 241.914C141.44 241.914 141.877 241.968 142.294 242.074C142.715 242.181 143.087 242.347 143.412 242.572C143.74 242.796 143.998 243.085 144.187 243.438C144.376 243.788 144.471 244.206 144.471 244.695V250.235H142.31V249.096H142.246C142.114 249.353 141.938 249.579 141.717 249.775C141.496 249.968 141.23 250.119 140.92 250.23C140.61 250.337 140.251 250.39 139.845 250.39ZM140.497 248.818C140.832 248.818 141.128 248.752 141.385 248.62C141.642 248.485 141.843 248.303 141.989 248.075C142.135 247.847 142.209 247.588 142.209 247.299V246.428C142.137 246.474 142.039 246.517 141.914 246.556C141.793 246.592 141.656 246.626 141.503 246.658C141.349 246.686 141.196 246.713 141.043 246.738C140.889 246.759 140.75 246.779 140.626 246.797C140.358 246.836 140.125 246.898 139.925 246.984C139.725 247.069 139.57 247.185 139.46 247.331C139.349 247.474 139.294 247.652 139.294 247.866C139.294 248.176 139.406 248.414 139.631 248.578C139.859 248.738 140.148 248.818 140.497 248.818ZM146.238 250.235V242.021H148.447V243.454H148.532C148.682 242.944 148.934 242.559 149.287 242.299C149.639 242.035 150.046 241.903 150.506 241.903C150.62 241.903 150.743 241.91 150.875 241.925C151.007 241.939 151.123 241.959 151.222 241.984V244.005C151.115 243.973 150.968 243.944 150.779 243.919C150.59 243.895 150.417 243.882 150.26 243.882C149.925 243.882 149.625 243.955 149.361 244.101C149.101 244.244 148.894 244.444 148.741 244.7C148.591 244.957 148.516 245.253 148.516 245.588V250.235H146.238ZM157.268 244.834V246.642H152.273V244.834H157.268ZM166.044 244.363L163.958 244.492C163.923 244.313 163.846 244.153 163.729 244.01C163.611 243.864 163.456 243.748 163.263 243.663C163.074 243.574 162.848 243.529 162.584 243.529C162.231 243.529 161.933 243.604 161.691 243.754C161.449 243.9 161.327 244.096 161.327 244.342C161.327 244.538 161.406 244.704 161.563 244.839C161.719 244.975 161.989 245.084 162.37 245.166L163.857 245.465C164.655 245.629 165.251 245.893 165.643 246.257C166.035 246.62 166.231 247.098 166.231 247.69C166.231 248.228 166.073 248.701 165.755 249.107C165.442 249.513 165.01 249.831 164.461 250.059C163.916 250.283 163.286 250.396 162.573 250.396C161.486 250.396 160.62 250.169 159.974 249.717C159.333 249.26 158.956 248.64 158.846 247.856L161.087 247.738C161.154 248.069 161.318 248.323 161.579 248.497C161.839 248.668 162.172 248.754 162.579 248.754C162.978 248.754 163.299 248.677 163.541 248.524C163.787 248.367 163.912 248.166 163.916 247.92C163.912 247.713 163.825 247.544 163.654 247.412C163.483 247.276 163.219 247.173 162.862 247.101L161.44 246.818C160.637 246.658 160.04 246.38 159.648 245.984C159.259 245.588 159.065 245.084 159.065 244.47C159.065 243.943 159.208 243.488 159.493 243.107C159.782 242.725 160.186 242.431 160.707 242.224C161.231 242.017 161.844 241.914 162.547 241.914C163.584 241.914 164.401 242.133 164.996 242.572C165.595 243.01 165.944 243.608 166.044 244.363ZM171.409 250.396C170.564 250.396 169.837 250.225 169.227 249.882C168.621 249.537 168.154 249.048 167.826 248.417C167.498 247.782 167.334 247.032 167.334 246.166C167.334 245.321 167.498 244.579 167.826 243.941C168.154 243.303 168.616 242.805 169.211 242.449C169.81 242.092 170.513 241.914 171.319 241.914C171.86 241.914 172.365 242.001 172.832 242.176C173.303 242.347 173.713 242.606 174.062 242.952C174.415 243.297 174.689 243.732 174.886 244.256C175.082 244.777 175.18 245.387 175.18 246.085V246.711H168.243V245.299H173.035C173.035 244.971 172.964 244.681 172.821 244.428C172.679 244.174 172.481 243.977 172.228 243.834C171.978 243.688 171.688 243.615 171.356 243.615C171.01 243.615 170.704 243.695 170.436 243.855C170.172 244.012 169.965 244.224 169.816 244.492C169.666 244.756 169.589 245.05 169.586 245.374V246.716C169.586 247.123 169.661 247.474 169.81 247.77C169.964 248.066 170.179 248.294 170.458 248.455C170.736 248.615 171.065 248.695 171.447 248.695C171.7 248.695 171.932 248.66 172.142 248.588C172.352 248.517 172.532 248.41 172.682 248.267C172.832 248.125 172.946 247.95 173.024 247.743L175.132 247.882C175.025 248.389 174.805 248.831 174.474 249.209C174.146 249.583 173.722 249.875 173.201 250.086C172.684 250.292 172.087 250.396 171.409 250.396Z" fill="white"/>
</g>
<defs>
<linearGradient id="paint0_linear_3105_68" x1="-9.98242" y1="3.74293" x2="254.535" y2="3.74293" gradientUnits="userSpaceOnUse">
<stop stop-color="#425CA3"/>
<stop offset="1" stop-color="#E3E7F1"/>
</linearGradient>
<clipPath id="clip0_3105_68">
<rect width="243.722" height="290.304" rx="14.9727" fill="white"/>
</clipPath>
</defs>
</svg>
